<?xml version="1.0" encoding="UTF-8" standalone="no"?>
<svg
   xmlns:dc="http://purl.org/dc/elements/1.1/"
   xmlns:cc="http://creativecommons.org/ns#"
   xmlns:rdf="http://www.w3.org/1999/02/22-rdf-syntax-ns#"
   xmlns:svg="http://www.w3.org/2000/svg"
   xmlns="http://www.w3.org/2000/svg"
   xmlns:sodipodi="http://sodipodi.sourceforge.net/DTD/sodipodi-0.dtd"
   xmlns:inkscape="http://www.inkscape.org/namespaces/inkscape"
   width="210mm"
   height="297mm"
   viewBox="0 0 210 297"
   version="1.1"
   id="svg8"
   inkscape:version="1.0.1 (3bc2e813f5, 2020-09-07)"
   sodipodi:docname="logo2.svg">
  <defs
     id="defs2">
    <rect
       x="23.385314"
       y="67.613425"
       width="371.74087"
       height="74.93227"
       id="rect1462" />
    <rect
       x="20.19908"
       y="57.063758"
       width="143.37401"
       height="21.009839"
       id="rect1028" />
    <filter
       inkscape:collect="always"
       style="color-interpolation-filters:sRGB"
       id="filter893"
       x="-0.0043115683"
       width="1.0086231"
       y="-0.013819529"
       height="1.0276391">
      <feGaussianBlur
         inkscape:collect="always"
         stdDeviation="0.23222833"
         id="feGaussianBlur895" />
    </filter>
    <filter
       inkscape:collect="always"
       style="color-interpolation-filters:sRGB"
       id="filter1021"
       x="-0.0028688835"
       width="0.93925619"
       y="-0.0031164053"
       height="1.0003029">
      <feGaussianBlur
         inkscape:collect="always"
         stdDeviation="0.15872246"
         id="feGaussianBlur1023" />
    </filter>
  </defs>
  <sodipodi:namedview
     id="base"
     pagecolor="#ffffff"
     bordercolor="#666666"
     borderopacity="1.0"
     inkscape:pageopacity="0.0"
     inkscape:pageshadow="2"
     inkscape:zoom="1.5653418"
     inkscape:cx="432.27703"
     inkscape:cy="599.13726"
     inkscape:document-units="mm"
     inkscape:current-layer="layer1"
     inkscape:document-rotation="0"
     showgrid="false"
     inkscape:window-width="1920"
     inkscape:window-height="978"
     inkscape:window-x="0"
     inkscape:window-y="31"
     inkscape:window-maximized="1"
     showguides="false" />
  <metadata
     id="metadata5">
    <rdf:RDF>
      <cc:Work
         rdf:about="">
        <dc:format>image/svg+xml</dc:format>
        <dc:type
           rdf:resource="http://purl.org/dc/dcmitype/StillImage" />
        <dc:title></dc:title>
      </cc:Work>
    </rdf:RDF>
  </metadata>
  <g
     inkscape:label="Layer 1"
     inkscape:groupmode="layer"
     id="layer1">
    <path
       id="rect837"
       style="display:inline;fill:#000000;stroke:#000000;stroke-width:0.999999;filter:url(#filter893)"
       d="M 177.76172,454.75195 V 607.18359 H 666.33398 V 454.75195 h -73.05664 v 66.45508 H 474.69531 v -66.45508 z"
       transform="matrix(0.12903339,0,0,0.1478269,66.343099,48.168973)" />
    <g
       id="g862"
       style="display:inline;opacity:1"
       transform="matrix(0.66598697,0,0,0.32280275,39.651267,82.591812)">
      <path
         style="color:#000000;font-style:normal;font-variant:normal;font-weight:normal;font-stretch:normal;font-size:medium;line-height:normal;font-family:sans-serif;font-variant-ligatures:normal;font-variant-position:normal;font-variant-caps:normal;font-variant-numeric:normal;font-variant-alternates:normal;font-variant-east-asian:normal;font-feature-settings:normal;font-variation-settings:normal;text-indent:0;text-align:start;text-decoration:none;text-decoration-line:none;text-decoration-style:solid;text-decoration-color:#000000;letter-spacing:normal;word-spacing:normal;text-transform:none;writing-mode:lr-tb;direction:ltr;text-orientation:mixed;dominant-baseline:auto;baseline-shift:baseline;text-anchor:start;white-space:normal;shape-padding:0;shape-margin:0;inline-size:0;clip-rule:nonzero;display:inline;overflow:visible;visibility:visible;isolation:auto;mix-blend-mode:normal;color-interpolation:sRGB;color-interpolation-filters:linearRGB;solid-color:#000000;solid-opacity:1;vector-effect:none;fill:#000000;fill-opacity:1;fill-rule:nonzero;stroke:none;stroke-width:2.11667;stroke-linecap:butt;stroke-linejoin:miter;stroke-miterlimit:4;stroke-dasharray:none;stroke-dashoffset:0;stroke-opacity:1;color-rendering:auto;image-rendering:auto;shape-rendering:auto;text-rendering:auto;enable-background:accumulate;stop-color:#000000;stop-opacity:1"
         d="m 125.5918,101.49023 v 39.81446 h 38.25781 v -1.0586 -38.75586 z m 2.11718,2.11524 h 34.02344 v 35.58203 h -34.02344 z"
         id="path866" />
    </g>
    <g
       id="g1042"
       style="display:inline;opacity:1;stroke:#000000"
       transform="matrix(0.54971124,0,0,0.45724026,35.752444,62.438593)">
      <path
         style="color:#000000;font-style:normal;font-variant:normal;font-weight:normal;font-stretch:normal;font-size:medium;line-height:normal;font-family:sans-serif;font-variant-ligatures:normal;font-variant-position:normal;font-variant-caps:normal;font-variant-numeric:normal;font-variant-alternates:normal;font-variant-east-asian:normal;font-feature-settings:normal;font-variation-settings:normal;text-indent:0;text-align:start;text-decoration:none;text-decoration-line:none;text-decoration-style:solid;text-decoration-color:#000000;letter-spacing:normal;word-spacing:normal;text-transform:none;writing-mode:lr-tb;direction:ltr;text-orientation:mixed;dominant-baseline:auto;baseline-shift:baseline;text-anchor:start;white-space:normal;shape-padding:0;shape-margin:0;inline-size:0;clip-rule:nonzero;display:inline;overflow:visible;visibility:visible;isolation:auto;mix-blend-mode:normal;color-interpolation:sRGB;color-interpolation-filters:linearRGB;solid-color:#000000;solid-opacity:1;vector-effect:none;fill:#ffffff;fill-opacity:1;fill-rule:nonzero;stroke:#000000;stroke-width:2.11667;stroke-linecap:butt;stroke-linejoin:miter;stroke-miterlimit:4;stroke-dasharray:none;stroke-dashoffset:0;stroke-opacity:1;color-rendering:auto;image-rendering:auto;shape-rendering:auto;text-rendering:auto;enable-background:accumulate;stop-color:#000000;stop-opacity:1"
         d="m 128.90718,103.57246 h 34.02344 v 35.58203 h -34.02344 v -32.85385 z"
         id="path1190" />
      <path
         style="color:#000000;font-style:normal;font-variant:normal;font-weight:normal;font-stretch:normal;font-size:medium;line-height:normal;font-family:sans-serif;font-variant-ligatures:normal;font-variant-position:normal;font-variant-caps:normal;font-variant-numeric:normal;font-variant-alternates:normal;font-variant-east-asian:normal;font-feature-settings:normal;font-variation-settings:normal;text-indent:0;text-align:start;text-decoration:none;text-decoration-line:none;text-decoration-style:solid;text-decoration-color:#000000;letter-spacing:normal;word-spacing:normal;text-transform:none;writing-mode:lr-tb;direction:ltr;text-orientation:mixed;dominant-baseline:auto;baseline-shift:baseline;text-anchor:start;white-space:normal;shape-padding:0;shape-margin:0;inline-size:0;clip-rule:nonzero;display:inline;overflow:visible;visibility:visible;isolation:auto;mix-blend-mode:normal;color-interpolation:sRGB;color-interpolation-filters:linearRGB;solid-color:#000000;solid-opacity:1;vector-effect:none;fill:#ffffff;fill-opacity:1;fill-rule:nonzero;stroke:#000000;stroke-width:2.11667;stroke-linecap:butt;stroke-linejoin:miter;stroke-miterlimit:4;stroke-dasharray:none;stroke-dashoffset:0;stroke-opacity:1;color-rendering:auto;image-rendering:auto;shape-rendering:auto;text-rendering:auto;enable-background:accumulate;stop-color:#000000;stop-opacity:1"
         d="m 126.79,101.45722 v 39.81446 h 38.25781 v -1.0586 -38.75586 z"
         id="path1040" />
    </g>
    <g
       id="g1454"
       style="opacity:1;fill:#000000;stroke:#ffffff;stroke-width:0.183073;stroke-miterlimit:4;stroke-dasharray:none"
       transform="matrix(0.7607439,0,0,0.68640068,32.934727,43.588752)">
      <path
         id="path1456"
         style="color:#000000;font-style:normal;font-variant:normal;font-weight:normal;font-stretch:normal;font-size:medium;line-height:normal;font-family:sans-serif;font-variant-ligatures:normal;font-variant-position:normal;font-variant-caps:normal;font-variant-numeric:normal;font-variant-alternates:normal;font-variant-east-asian:normal;font-feature-settings:normal;font-variation-settings:normal;text-indent:0;text-align:start;text-decoration:none;text-decoration-line:none;text-decoration-style:solid;text-decoration-color:#000000;letter-spacing:normal;word-spacing:normal;text-transform:none;writing-mode:lr-tb;direction:ltr;text-orientation:mixed;dominant-baseline:auto;baseline-shift:baseline;text-anchor:start;white-space:normal;shape-padding:0;shape-margin:0;inline-size:0;clip-rule:nonzero;display:inline;overflow:visible;visibility:visible;isolation:auto;mix-blend-mode:normal;color-interpolation:sRGB;color-interpolation-filters:linearRGB;solid-color:#000000;solid-opacity:1;vector-effect:none;fill:#000000;fill-opacity:1;fill-rule:nonzero;stroke:#ffffff;stroke-width:0.538264;stroke-linecap:butt;stroke-linejoin:miter;stroke-miterlimit:4;stroke-dasharray:none;stroke-dashoffset:0;stroke-opacity:1;color-rendering:auto;image-rendering:auto;shape-rendering:auto;text-rendering:auto;enable-background:accumulate;stop-color:#000000;stop-opacity:1"
         d="m 301.41406,436.13672 v 161.0625 h 273.50782 v -161.0625 z m 8.65235,6.07617 6.70703,149.99609 c -5.18381,-29.40128 -8.66916,1.35989 -8.40821,0.83204 z m 55.1289,94.97461 c 2.26723,0 4.27055,0.9451 5.91211,2.93555 0.5166,0.61433 0.97895,1.89215 1.41602,2.81445 l 0.54101,-4.87695 h 3.64258 0.94531 l -3.5664,31.72265 c -0.89683,7.86698 -1.76626,11.4421 -3.83789,15.09961 -2.54399,4.51696 -6.23746,6.9961 -10.30469,6.9961 -3.77712,0 -6.82439,-2.26972 -8.71484,-6.65821 -0.8169,-1.88755 -1.22155,-4.04442 -1.5918,-7.74023 l -0.15039,-1.51563 h 4.39844 l 0.17968,0.89063 c 0.0238,0.11906 0.0591,0.25527 0.0957,0.38476 0.0183,0.0647 0.0352,0.12695 0.0566,0.20704 0.0107,0.0399 0.0235,0.0826 0.0391,0.15625 8.6e-4,0.004 -8.5e-4,0.002 0,0.006 0.74804,3.14186 0.92393,3.51907 1.72852,4.73046 1.08705,1.5693 2.5191,2.35938 4.48437,2.35938 3.17517,0 5.67036,-2.12923 7.22266,-6.06445 v -0.004 l 0.002,-0.004 c 0.52758,-1.31657 0.7771,-3.21979 1.0918,-4.95507 -2.09232,2.97547 -4.70048,4.63281 -7.66797,4.63281 -6.01359,0 -10.40039,-7.13234 -10.40039,-16.89844 0,-5.43439 1.43749,-11.49529 3.78906,-15.97656 l 0.002,-0.004 c 2.83368,-5.34751 6.51555,-8.23828 10.6875,-8.23828 z m 0,2.61133 c -3.74512,0 -6.9327,2.48658 -9.51172,7.35351 -2.0898,3.98566 -3.39648,9.61256 -3.39648,14.25586 0,8.51244 3.53357,14.28711 8.83008,14.28711 3.72911,0 6.65939,-2.6253 8.67187,-7.74219 l 1.42774,0.95704 -0.28321,2.48437 c -0.4145,3.65482 -0.97967,6.29098 -1.93359,8.67383 l -0.002,0.008 c -1.84126,4.65929 -4.92133,7.23242 -8.5293,7.23242 -2.23117,0 -4.10895,-0.95737 -5.52539,-3.00976 l -0.004,-0.006 -0.006,-0.008 c -0.88361,-1.33004 -1.35908,-2.4584 -2.13476,-5.71289 h -1.3125 c 0.27729,2.13096 0.52416,3.98939 1.01562,5.125 v 0.004 c 1.58336,3.67559 4.02854,5.56836 7.44141,5.56836 3.68712,0 6.94172,-2.22401 9.16406,-6.17187 v -0.004 h 0.002 c 1.88651,-3.33067 2.55338,-6.07304 3.43359,-13.79297 l 3.2207,-28.6289 h -1.39453 l -0.9707,8.71874 -1.06836,-2.80664 c -1.03989,-2.72809 -1.37283,-3.43172 -2.13867,-4.34179 l -0.002,-0.004 -0.002,-0.004 c -1.34678,-1.63501 -2.9796,-2.43555 -4.99219,-2.43555 z m -0.44531,1.95898 c 4.48407,0 7.93555,5.39649 7.93555,12.52735 0,3.79554 -0.77889,7.7796 -2.15235,11.20703 l -0.002,0.004 v 0.004 c -2.14452,5.28027 -5.36238,8.23438 -8.92969,8.23438 -2.66971,-10e-6 -5.00016,-1.75802 -6.26562,-4.87696 -0.96534,-2.37219 -1.50782,-5.62411 -1.50782,-8.59375 10e-6,-3.84156 0.8959,-8.07238 2.42774,-11.28125 2.18339,-4.69834 5.15403,-7.22461 8.49414,-7.22461 z m 0,2.60938 c -2.8794,0 -5.31933,2.04361 -7.25586,6.21289 l -0.002,0.008 -0.006,0.008 c -1.29267,2.70356 -2.0918,6.52488 -2.0918,9.66797 0,2.40532 0.50974,5.33882 1.24024,7.13281 0.91577,2.25709 2.70853,3.72852 4.96679,3.72852 3.05615,0 5.73226,-2.41973 7.62696,-7.08203 1.2117,-3.02379 1.88671,-6.56449 1.88671,-9.75781 0,-5.77167 -2.60908,-9.91602 -6.36523,-9.91602 z"
         transform="matrix(0.34187239,0,0,0.33837193,-36.667988,-36.079388)" />
      <path
         style="color:#000000;font-style:normal;font-variant:normal;font-weight:normal;font-stretch:normal;font-size:medium;line-height:normal;font-family:sans-serif;font-variant-ligatures:normal;font-variant-position:normal;font-variant-caps:normal;font-variant-numeric:normal;font-variant-alternates:normal;font-variant-east-asian:normal;font-feature-settings:normal;font-variation-settings:normal;text-indent:0;text-align:start;text-decoration:none;text-decoration-line:none;text-decoration-style:solid;text-decoration-color:#000000;letter-spacing:normal;word-spacing:normal;text-transform:none;writing-mode:lr-tb;direction:ltr;text-orientation:mixed;dominant-baseline:auto;baseline-shift:baseline;text-anchor:start;white-space:normal;shape-padding:0;shape-margin:0;inline-size:0;clip-rule:nonzero;display:inline;overflow:visible;visibility:visible;isolation:auto;mix-blend-mode:normal;color-interpolation:sRGB;color-interpolation-filters:linearRGB;solid-color:#000000;solid-opacity:1;vector-effect:none;fill:#000000;fill-opacity:1;fill-rule:nonzero;stroke:#ffffff;stroke-width:0.183073;stroke-linecap:butt;stroke-linejoin:miter;stroke-miterlimit:4;stroke-dasharray:none;stroke-dashoffset:0;stroke-opacity:1;color-rendering:auto;image-rendering:auto;shape-rendering:auto;text-rendering:auto;enable-background:accumulate;stop-color:#000000;stop-opacity:1"
         d="m 66.113281,111.23242 v 0.26367 54.76563 h 94.033199 v -55.0293 z m 0.529297,0.5293 h 92.974612 v 53.9707 H 66.642578 Z m 2.957031,1.7793 -0.529297,0.01 v 0.0137 l -0.580078,50.91016 c -2.38e-4,0.003 -0.0017,0.0104 -0.002,0.0137 -0.0024,0.0355 -0.0046,0.0617 -0.0039,0.0937 1.74e-4,0.008 7.31e-4,0.0169 0.002,0.0293 6.11e-4,0.006 2.2e-4,0.0136 0.002,0.0234 0.0017,0.01 0.01153,0.0404 0.01172,0.041 1.93e-4,5.7e-4 0.05446,0.0935 0.05469,0.0937 2.31e-4,2.6e-4 0.253635,0.0801 0.253906,0.0801 2.7e-4,-6e-5 0.148128,-0.0895 0.148437,-0.0898 3.1e-4,-3.8e-4 0.02733,-0.041 0.0332,-0.0527 l 0.02734,-0.0547 0.002,-0.17187 c 0.0045,-0.058 0.01012,-0.12797 0.02148,-0.23047 0.02697,-0.24321 0.07397,-0.59303 0.136718,-0.98633 0.125498,-0.78659 0.32262,-1.75415 0.5625,-2.38476 0.119941,-0.31531 0.267,-0.54268 0.339844,-0.59961 0.03642,-0.0285 0.02789,-0.0198 0.0293,-0.0195 0.0014,2.5e-4 0.04165,0.0119 0.107422,0.0898 0.131535,0.15582 0.324192,0.54506 0.521484,1.19727 0.197292,0.6522 0.408529,1.56951 0.628907,2.80664 l 0.52539,-0.0586 -2.292969,-50.73828 z m -0.107421,9.3789 1.738281,38.4375 c -0.200438,-0.65246 -0.387383,-1.08662 -0.609375,-1.34961 -0.114013,-0.13507 -0.249786,-0.23695 -0.416016,-0.26758 -0.16623,-0.0306 -0.332791,0.0305 -0.451172,0.12305 -0.23676,0.18506 -0.37358,0.47525 -0.507812,0.82813 -0.08747,0.22993 -0.121356,0.53802 -0.19336,0.81054 z"
         id="path1458" />
    </g>
    <path
       style="display:inline;fill:#000000;stroke:#ffffff;stroke-width:0.0385676;stroke-miterlimit:4;stroke-dasharray:none"
       d="m 112.23256,126.02792 c -2.65862,-0.0558 -5.34365,3.02543 -6.3922,7.93524 -0.90619,4.03784 -0.48234,9.0123 0.99248,12.31161 1.94376,4.55791 5.41106,5.99493 8.17366,3.74565 2.22007,-1.70211 3.9724,-5.90037 4.11425,-10.67029 0.18888,-4.53682 -1.12788,-8.99346 -3.09063,-11.2679 -1.13716,-1.36462 -2.4687,-2.06439 -3.79756,-2.05431 z"
       id="path971" />
    <path
       id="path876"
       style="display:inline;fill:#000000;stroke:#ffffff;stroke-width:0.529167;stroke-miterlimit:4;stroke-dasharray:none;filter:url(#filter1021)"
       d="m 109.316,121.27791 c -25.630725,-0.27266 -51.516003,14.76933 -61.624652,38.73778 -8.736272,19.71168 -4.650105,43.99571 9.568066,60.10206 18.739027,22.25057 52.165916,29.26572 78.799176,18.28533 21.40282,-8.30923 38.29629,-28.80404 39.66385,-52.08955 1.82098,-22.14763 -10.87351,-43.90378 -29.79559,-55.00705 -10.96294,-6.66167 -23.79978,-10.07779 -36.61085,-10.02857 z m 0.0289,11.07736 c 23.90601,-0.51501 47.75148,16.02516 53.32191,39.69553 5.28078,20.08096 -4.27724,42.31236 -21.58892,53.39486 -22.09141,15.16948 -54.856165,11.75737 -72.873045,-8.25934 -14.584428,-15.1446 -17.625695,-39.89575 -6.743411,-57.96071 9.59041,-16.79876 28.693141,-26.99253 47.883466,-26.87034 z m 0.13435,0.2067 c -22.271875,-0.34914 -44.815321,13.72525 -51.793466,35.32645 -6.457391,18.59895 0.848479,40.34803 16.375483,52.17663 21.866173,17.86558 57.686913,17.36865 76.901483,-3.4865 14.09417,-14.2998 16.86781,-39.44308 6.71703,-56.87342 -9.42745,-17.11059 -28.88996,-27.31604 -48.20053,-27.14316 z m 0,9.26094 c 20.16494,-0.43271 40.19977,14.17309 43.81124,34.40716 3.78489,18.06399 -6.99864,37.10854 -23.54976,44.63378 -68.75008,26.39262 -85.865933,-78.32828 -20.26148,-79.04094 z m 0,0 c -18.989095,-0.38543 -37.897943,16.75646 -40.771374,35.91724 -3.125861,17.18129 7.842483,34.84524 23.797514,41.21193 18.68729,8.2953 45.40917,2.87239 55.57031,-15.17565 3.01162,-4.95906 4.33487,-10.76762 4.269,-16.71486 -0.12687,-11.45393 -5.40624,-23.42227 -13.70044,-30.8273 -7.81217,-7.38004 -18.44681,-14.48008 -29.16501,-14.41136 z m 0,10.21746 c 16.05527,-0.40609 31.9214,12.01114 33.45588,28.3604 1.96901,15.31313 -9.54981,30.07996 -24.24943,33.62136 -16.1701,4.68412 -35.441785,-4.05968 -41.068465,-20.25962 -5.336291,-13.89853 1.70089,-30.54554 14.74615,-37.33031 5.203155,-2.90375 11.162335,-4.40085 17.115865,-4.39183 z m -0.0351,18.19321 c -9.29701,-0.52228 -17.395395,9.91862 -13.10528,18.61113 4.28302,10.26787 20.44299,10.93892 25.68072,1.17105 5.4651,-8.97384 -2.56724,-20.22326 -12.57544,-19.78218 z m 0.0351,2.47375 c 8.03843,-0.53059 14.71358,9.03948 10.22473,16.12931 -4.45175,8.36343 -18.56804,7.19752 -21.32969,-1.95835 -2.97001,-7.76873 9.78715,-5.10799 11.96613,-10.22824 0.80722,-1.58306 -4.48065,-3.99601 -0.86117,-3.94272 z"
       sodipodi:nodetypes="cccccccccccccccccccccccccccsccccccccccccccccc"
       transform="matrix(0.33710688,0,0,0.37144294,80.673929,69.162909)" />
    <g
       id="g1474"
       style="opacity:1"
       transform="matrix(0.83152941,0,0,0.75475643,15.310294,100.12446)">
      <path
         style="color:#000000;font-style:normal;font-variant:normal;font-weight:normal;font-stretch:normal;font-size:medium;line-height:normal;font-family:sans-serif;font-variant-ligatures:normal;font-variant-position:normal;font-variant-caps:normal;font-variant-numeric:normal;font-variant-alternates:normal;font-variant-east-asian:normal;font-feature-settings:normal;font-variation-settings:normal;text-indent:0;text-align:start;text-decoration:none;text-decoration-line:none;text-decoration-style:solid;text-decoration-color:#000000;letter-spacing:normal;word-spacing:normal;text-transform:none;writing-mode:lr-tb;direction:ltr;text-orientation:mixed;dominant-baseline:auto;baseline-shift:baseline;text-anchor:start;white-space:normal;shape-padding:0;shape-margin:0;inline-size:0;clip-rule:nonzero;display:inline;overflow:visible;visibility:visible;isolation:auto;mix-blend-mode:normal;color-interpolation:sRGB;color-interpolation-filters:linearRGB;solid-color:#000000;solid-opacity:1;vector-effect:none;fill:#ffffff;fill-opacity:1;fill-rule:nonzero;stroke:none;stroke-width:0.529167;stroke-linecap:butt;stroke-linejoin:miter;stroke-miterlimit:4;stroke-dasharray:none;stroke-dashoffset:0;stroke-opacity:1;color-rendering:auto;image-rendering:auto;shape-rendering:auto;text-rendering:auto;enable-background:accumulate;stop-color:#000000;stop-opacity:1"
         d="m 66.113281,111.23242 v 0.26367 54.76563 h 94.033199 v -55.0293 z m 0.529297,0.5293 h 92.974612 v 53.9707 H 66.642578 Z m 2.957031,1.7793 -0.529297,0.01 v 0.0137 l -0.580078,50.91016 c -2.38e-4,0.003 -0.0017,0.0104 -0.002,0.0137 -0.0024,0.0355 -0.0046,0.0617 -0.0039,0.0937 1.74e-4,0.008 7.31e-4,0.0169 0.002,0.0293 6.11e-4,0.006 2.2e-4,0.0136 0.002,0.0234 0.0017,0.01 0.01153,0.0404 0.01172,0.041 1.93e-4,5.7e-4 0.05446,0.0935 0.05469,0.0937 2.31e-4,2.6e-4 0.253635,0.0801 0.253906,0.0801 2.7e-4,-6e-5 0.148128,-0.0895 0.148437,-0.0898 3.1e-4,-3.8e-4 0.02733,-0.041 0.0332,-0.0527 l 0.02734,-0.0547 0.002,-0.17187 c 0.0045,-0.058 0.01012,-0.12797 0.02148,-0.23047 0.02697,-0.24321 0.07397,-0.59303 0.136718,-0.98633 0.125498,-0.78659 0.32262,-1.75415 0.5625,-2.38476 0.119941,-0.31531 0.267,-0.54268 0.339844,-0.59961 0.03642,-0.0285 0.02789,-0.0198 0.0293,-0.0195 0.0014,2.5e-4 0.04165,0.0119 0.107422,0.0898 0.131535,0.15582 0.324192,0.54506 0.521484,1.19727 0.197292,0.6522 0.408529,1.56951 0.628907,2.80664 l 0.52539,-0.0586 -2.292969,-50.73828 z m -0.107421,9.3789 1.738281,38.4375 c -0.200438,-0.65246 -0.387383,-1.08662 -0.609375,-1.34961 -0.114013,-0.13507 -0.249786,-0.23695 -0.416016,-0.26758 -0.16623,-0.0306 -0.332791,0.0305 -0.451172,0.12305 -0.23676,0.18506 -0.37358,0.47525 -0.507812,0.82813 -0.08747,0.22993 -0.121356,0.53802 -0.19336,0.81054 z"
         id="path1472" />
    </g>
    <path
       id="path1468"
       style="display:inline;fill:#000000;stroke:#ffffff;stroke-width:0.132292;stroke-miterlimit:4;stroke-dasharray:none"
       d="m 154.1265,115.58709 c -6.64559,13.63363 -10.04462,20.52316 -11.45202,23.24096 -0.49097,3.46236 -0.43538,6.86963 0.69505,9.32604 2.67154,6.08495 6.72794,7.7352 10.75697,7.96696 v -36.18229 c -21.76589,44.57512 -1.21159,1.17816 0,-3.8778 z m -2.73782,2.24534 c -1.40103,2.04566 -3.22356,5.41377 -5.56504,10.00611 -1.14166,2.55358 -2.36591,6.2804 -3.0024,10.03866 2.05765,-4.77602 6.90015,-15.52492 8.56744,-20.04477 z" />
    <path
       id="path1480"
       style="display:inline;fill:#ffffff;stroke:#ffffff;stroke-width:0.132292;stroke-miterlimit:4;stroke-dasharray:none"
       d="m 154.12649,115.58708 c -6.64559,13.63363 -10.04462,20.52317 -11.45201,23.24096 -0.49097,3.46236 -0.43539,6.86963 0.69504,9.32605 2.67154,6.08495 6.72794,7.7352 10.75697,7.96695 v -36.18228 c -21.76588,44.57512 -1.21159,1.17816 0,-3.8778 z m -2.73782,2.24534 c -1.40103,2.04567 -3.22356,5.41378 -5.56503,10.00611 -1.14166,2.55358 -2.36591,6.2804 -3.0024,10.03867 2.05765,-4.77602 6.90014,-15.52493 8.56743,-20.04478 z" />
    <g
       id="g954"
       transform="matrix(0.8318641,0,0,1.1246562,18.135653,-15.778018)"
       style="opacity:1;stroke-width:0.999961;stroke-miterlimit:4;stroke-dasharray:none">
      <rect
         style="opacity:1;fill:#ffffff;stroke:#000000;stroke-width:0.522315;stroke-miterlimit:4;stroke-dasharray:none"
         id="rect942"
         width="88.348526"
         height="8.8686132"
         x="76.899231"
         y="137.13182" />
      <rect
         style="opacity:1;fill:#ffffff;stroke:#ffffff;stroke-width:1.29911;stroke-miterlimit:4;stroke-dasharray:none"
         id="rect944"
         width="89.164085"
         height="8.7023153"
         x="77.09185"
         y="140.60881" />
    </g>
    <path
       id="path1270"
       style="display:inline;fill:#ffffff;stroke:#333333;stroke-width:0.554548;stroke-miterlimit:4;stroke-dasharray:none;filter:url(#filter1021)"
       d="m 795.26172,427.80859 c -41.12197,-0.42976 -82.65081,23.27786 -98.86914,61.05664 -14.01649,31.06932 -7.46205,69.34579 15.34961,94.73243 30.06492,35.07108 83.69534,46.12942 126.42578,28.82226 34.33871,-13.09691 61.4426,-45.40117 63.63672,-82.10351 2.31417,-27.65119 -9.99206,-54.90724 -30.29297,-73.7461 12.52426,11.88572 21.87174,27.00145 25.9043,44.20508 9.53065,36.38587 -7.72104,76.66897 -38.96485,96.75 -39.87018,27.48647 -99.00299,21.30461 -131.51953,-14.96484 -26.32171,-27.44139 -31.81007,-72.29048 -12.16992,-105.02344 17.3086,-30.43866 51.78557,-48.9089 86.41992,-48.6875 6.34047,-0.13714 12.67483,0.4102 18.90625,1.55078 -8.14757,-1.74282 -16.48879,-2.62327 -24.82617,-2.5918 z m 6.16211,1.41602 c -40.19588,-0.63263 -80.88253,24.86928 -93.47656,64.00977 -11.65419,33.70052 1.53182,73.10808 29.55468,94.54101 39.46368,32.37169 104.11095,31.47226 138.78907,-6.31641 25.4369,-25.91064 30.44299,-71.46968 12.12304,-103.05273 -5.10435,-9.3011 -11.8469,-17.46665 -19.71484,-24.3457 -4.56197,-3.92025 -9.47678,-7.43586 -14.69727,-10.44532 -4.9484,-2.95403 -10.14159,-5.48847 -15.49804,-7.625 -11.81607,-4.51679 -24.46369,-6.87902 -37.08008,-6.76562 z m -6.11524,16.04297 c 5.27,-0.11154 10.53604,0.30311 15.72657,1.16601 29.8513,3.21816 57.75481,24.01238 67.14453,52.76953 1.06031,2.80454 1.97228,5.67971 2.67969,8.63282 8.47249,31.65137 -6.86379,66.69205 -34.63868,84.16015 -35.44349,23.90996 -88.00971,18.53058 -116.91601,-13.01953 -23.39928,-23.87074 -28.27987,-62.88169 -10.82031,-91.35547 15.38686,-26.478 46.03523,-42.54611 76.82421,-42.35351 z m 0.2168,0.32617 c -35.73303,-0.55031 -71.90191,21.63408 -83.09766,55.68164 -10.36024,29.31545 1.35994,63.59613 26.27149,82.24023 35.08212,28.15952 92.55298,27.37555 123.38086,-5.49609 18.70941,-18.64857 24.97065,-48.99199 17.35547,-74.47461 0.40254,1.58272 0.76789,3.18046 1.05664,4.80469 6.8309,32.7312 -12.63079,67.23762 -42.50196,80.87305 -58.53906,22.56205 -96.32163,-7.75964 -107.48437,-46.21875 2.0642,5.97483 4.96026,11.66949 8.53906,16.91015 -2.77752,-4.82959 -4.97512,-9.99247 -6.5625,-15.34375 5.83837,16.5347 19.11948,30.64695 35.8086,37.18946 29.98191,13.07495 72.85565,4.52914 89.1582,-23.91797 4.83185,-7.81642 6.95529,-16.97369 6.84961,-26.34766 -0.0666,-5.90677 -1.03563,-11.89526 -2.75195,-17.69531 0.0954,0.69961 0.19162,1.39945 0.25781,2.10742 3.55363,27.74676 -17.23602,54.50305 -43.76563,60.91992 -20.24561,5.88803 -43.17805,0.0592 -58.7207,-13.85937 -6.67728,-5.50303 -11.96738,-12.57546 -14.91406,-20.91016 -0.79324,-2.02967 -1.41447,-4.09536 -1.875,-6.18359 -6.78439,-24.23991 5.76876,-51.78613 28.0039,-63.39649 9.39056,-5.26147 20.1458,-7.97533 30.89063,-7.95898 6.91852,-0.17569 13.81353,0.98598 20.3457,3.24023 -8.29397,-4.57394 -17.24753,-7.62307 -26.24414,-7.5664 32.35266,-0.68204 64.49482,22.33776 70.28906,54.23047 6.07249,28.47224 -11.22856,58.49036 -37.7832,70.35156 -14.28677,5.38813 -27.17929,7.30305 -38.57813,6.5625 30.92282,5.33175 66.47655,-6.05385 81.62891,-33.07422 5.43532,-8.98561 7.82201,-19.51096 7.70313,-30.28711 -0.22898,-20.75405 -9.75539,-42.43981 -24.72461,-55.85742 -14.09927,-13.37233 -33.29271,-26.2378 -52.63672,-26.11328 1.15361,-0.0249 2.30678,-0.0215 3.45898,0.008 -3.1111,-0.29933 -6.23453,-0.44544 -9.35742,-0.41797 z m -1.33398,0.74219 c -31.70421,3.38175 -61.5311,32.47806 -66.35157,64.75 -0.36356,2.00628 -0.61676,4.0156 -0.77343,6.02344 0.64539,-34.17058 21.77899,-67.13828 67.125,-70.77344 z m -5.08594,14.14258 c -28.18767,2.93706 -54.7084,28.24835 -58.99414,56.32421 -0.32189,1.73813 -0.54806,3.47927 -0.6875,5.21875 0.58263,-29.71896 19.37329,-58.38557 59.68164,-61.54296 z m 4.9707,44.46484 c -6.63645,0.10653 -12.76465,3.577 -16.77344,8.58594 -2.25731,5.54333 -2.47107,11.82857 0.4043,17.67773 -1.76532,-4.5364 -0.0639,-6.81537 2.95117,-8.29883 0.86937,-5.82407 9.84093,-6.32355 16.29297,-8.88086 -0.76792,-2.38458 -6.45795,-5.23099 -1.42578,-5.1582 2.44838,-0.15877 4.81686,0.25821 7,1.11133 0.16943,-0.27638 0.32154,-0.56526 0.45117,-0.87109 0.54759,-1.07816 -0.45726,-2.36684 -1.58008,-3.55274 -1.90009,-0.46155 -3.88734,-0.67428 -5.92773,-0.58594 -0.46613,-0.0257 -0.93075,-0.0348 -1.39258,-0.0273 z m 21.17188,31.86914 c -3.04582,2.47713 -6.80096,3.93307 -10.70899,4.41406 -6.65273,3.20183 -15.33452,2.41395 -21.16992,-2.01172 5.39778,4.90688 12.96553,7.14859 20.29688,6.61524 4.73225,-1.55311 8.91298,-4.55326 11.58203,-9.01758 z"
       transform="matrix(0.20625475,0,0,0.23080852,-46.473418,15.907413)" />
    <g
       aria-label="Rings &amp; Kisses"
       transform="matrix(0.41035213,0,0,0.66581083,127.87865,126.28082)"
       id="text1026"
       style="font-size:16.9333px;line-height:1.25;font-family:sans-serif;white-space:pre;shape-inside:url(#rect1028);fill:#000000;stroke:#000000;stroke-width:1.01668;stroke-miterlimit:4;stroke-dasharray:none">
      <g
         aria-label="Rings and Kisses"
         transform="matrix(0.65628735,0,0,0.75502775,-126.85553,-51.276043)"
         id="text1460"
         style="font-size:59.1601px;line-height:1.25;font-family:sans-serif;white-space:pre;shape-inside:url(#rect1462);fill:#000000;stroke:#000000;stroke-width:1.37845;stroke-miterlimit:4;stroke-dasharray:none">
        <g
           id="g1103"
           style="opacity:1">
          <path
             style="color:#000000;font-style:italic;font-variant:normal;font-weight:normal;font-stretch:normal;font-size:35.4961px;line-height:1.25;font-family:'URW Gothic';-inkscape-font-specification:'URW Gothic Italic';font-variant-ligatures:normal;font-variant-position:normal;font-variant-caps:normal;font-variant-numeric:normal;font-variant-alternates:normal;font-variant-east-asian:normal;font-feature-settings:normal;font-variation-settings:normal;text-indent:0;text-align:start;text-decoration:none;text-decoration-line:none;text-decoration-style:solid;text-decoration-color:#000000;letter-spacing:normal;word-spacing:normal;text-transform:none;writing-mode:lr-tb;direction:ltr;text-orientation:mixed;dominant-baseline:auto;baseline-shift:baseline;text-anchor:start;white-space:normal;shape-padding:0;shape-margin:0;inline-size:0;clip-rule:nonzero;display:inline;overflow:visible;visibility:visible;isolation:auto;mix-blend-mode:normal;color-interpolation:sRGB;color-interpolation-filters:linearRGB;solid-color:#000000;solid-opacity:1;vector-effect:none;fill:#000000;fill-opacity:1;fill-rule:nonzero;stroke:none;stroke-width:1.37845;stroke-linecap:butt;stroke-linejoin:miter;stroke-miterlimit:4;stroke-dasharray:none;stroke-dashoffset:0;stroke-opacity:1;color-rendering:auto;image-rendering:auto;shape-rendering:auto;text-rendering:auto;enable-background:accumulate;stop-color:#000000;stop-opacity:1"
             d="m 37.938167,110.15918 c 5.572888,-0.46145 9.335475,-4.43701 9.335475,-9.83242 0,-2.449232 -0.958395,-4.295029 -2.768696,-5.359912 -1.597325,-0.887403 -3.620602,-1.242364 -7.063724,-1.242364 H 30.945435 L 26.082469,119.9561 h 2.626712 l 4.437013,-23.853377 h 3.691594 c 5.537392,0 7.702654,1.313356 7.702654,4.649987 0,2.83969 -1.561828,5.5019 -3.869075,6.46029 -1.526332,0.63893 -3.230145,0.85191 -7.09922,0.85191 l 6.637771,11.89119 h 3.265641 z"
             id="path1105" />
          <path
             style="color:#000000;font-style:italic;font-variant:normal;font-weight:normal;font-stretch:normal;font-size:35.4961px;line-height:1.25;font-family:'URW Gothic';-inkscape-font-specification:'URW Gothic Italic';font-variant-ligatures:normal;font-variant-position:normal;font-variant-caps:normal;font-variant-numeric:normal;font-variant-alternates:normal;font-variant-east-asian:normal;font-feature-settings:normal;font-variation-settings:normal;text-indent:0;text-align:start;text-decoration:none;text-decoration-line:none;text-decoration-style:solid;text-decoration-color:#000000;letter-spacing:normal;word-spacing:normal;text-transform:none;writing-mode:lr-tb;direction:ltr;text-orientation:mixed;dominant-baseline:auto;baseline-shift:baseline;text-anchor:start;white-space:normal;shape-padding:0;shape-margin:0;inline-size:0;clip-rule:nonzero;display:inline;overflow:visible;visibility:visible;isolation:auto;mix-blend-mode:normal;color-interpolation:sRGB;color-interpolation-filters:linearRGB;solid-color:#000000;solid-opacity:1;vector-effect:none;fill:#000000;fill-opacity:1;fill-rule:nonzero;stroke:none;stroke-width:1.37845;stroke-linecap:butt;stroke-linejoin:miter;stroke-miterlimit:4;stroke-dasharray:none;stroke-dashoffset:0;stroke-opacity:1;color-rendering:auto;image-rendering:auto;shape-rendering:auto;text-rendering:auto;enable-background:accumulate;stop-color:#000000;stop-opacity:1"
             d="m 30.373047,93.035156 -5.119141,27.609374 h 4.027344 l 4.4375,-23.853514 h 3.119141 c 2.714206,0 4.531906,0.347083 5.570312,0.974609 1.038406,0.627526 1.44336,1.4671 1.443359,2.986325 0,2.58698 -1.453874,4.99701 -3.445312,5.82422 l -0.002,0.002 c -1.408132,0.58946 -2.988249,0.79688 -6.832031,0.79688 h -1.173828 l 7.40625,13.26953 H 44.65625 L 38.974609,110.5918 c 5.304513,-0.88541 8.988282,-4.897 8.988282,-10.26563 0,-2.629028 -1.090701,-4.765668 -3.109375,-5.953123 l -0.0059,-0.0039 -0.0078,-0.0039 C 43.09471,93.395744 40.93187,93.035169 37.441378,93.035169 Z m 1.146484,1.378906 h 5.921875 c 3.391978,0 5.273758,0.3509 6.722656,1.154297 1.595281,0.9429 2.419922,2.49317 2.419922,4.757811 0,5.07498 -3.429253,8.7098 -8.703125,9.14649 l -1.072265,0.0879 0.529297,0.9375 4.957031,8.76953 h -1.679688 l -5.896484,-10.5625 c 2.968861,-0.0515 4.781009,-0.25475 6.216797,-0.85547 2.623056,-1.08957 4.294922,-4.00525 4.294922,-7.09766 0,-1.8174 -0.678849,-3.302703 -2.107422,-4.166012 -1.428573,-0.86331 -3.46197,-1.171875 -6.285156,-1.171876 h -4.263672 l -4.4375,23.853518 h -1.226563 z"
             id="path1107" />
        </g>
        <g
           id="g1109"
           style="opacity:1">
          <path
             style="color:#000000;font-style:italic;font-variant:normal;font-weight:normal;font-stretch:normal;font-size:35.4961px;line-height:1.25;font-family:'URW Gothic';-inkscape-font-specification:'URW Gothic Italic';font-variant-ligatures:normal;font-variant-position:normal;font-variant-caps:normal;font-variant-numeric:normal;font-variant-alternates:normal;font-variant-east-asian:normal;font-feature-settings:normal;font-variation-settings:normal;text-indent:0;text-align:start;text-decoration:none;text-decoration-line:none;text-decoration-style:solid;text-decoration-color:#000000;letter-spacing:normal;word-spacing:normal;text-transform:none;writing-mode:lr-tb;direction:ltr;text-orientation:mixed;dominant-baseline:auto;baseline-shift:baseline;text-anchor:start;white-space:normal;shape-padding:0;shape-margin:0;inline-size:0;clip-rule:nonzero;display:inline;overflow:visible;visibility:visible;isolation:auto;mix-blend-mode:normal;color-interpolation:sRGB;color-interpolation-filters:linearRGB;solid-color:#000000;solid-opacity:1;vector-effect:none;fill:#000000;fill-opacity:1;fill-rule:nonzero;stroke:none;stroke-width:1.37845;stroke-linecap:butt;stroke-linejoin:miter;stroke-miterlimit:4;stroke-dasharray:none;stroke-dashoffset:0;stroke-opacity:1;color-rendering:auto;image-rendering:auto;shape-rendering:auto;text-rendering:auto;enable-background:accumulate;stop-color:#000000;stop-opacity:1"
             d="m 47.167098,119.9561 h 2.626711 l 3.585106,-19.41636 h -2.626711 z m 4.046555,-21.759107 h 2.626712 l 0.81641,-4.472509 h -2.626711 z"
             id="path1111" />
          <path
             style="color:#000000;font-style:italic;font-variant:normal;font-weight:normal;font-stretch:normal;font-size:35.4961px;line-height:1.25;font-family:'URW Gothic';-inkscape-font-specification:'URW Gothic Italic';font-variant-ligatures:normal;font-variant-position:normal;font-variant-caps:normal;font-variant-numeric:normal;font-variant-alternates:normal;font-variant-east-asian:normal;font-feature-settings:normal;font-variation-settings:normal;text-indent:0;text-align:start;text-decoration:none;text-decoration-line:none;text-decoration-style:solid;text-decoration-color:#000000;letter-spacing:normal;word-spacing:normal;text-transform:none;writing-mode:lr-tb;direction:ltr;text-orientation:mixed;dominant-baseline:auto;baseline-shift:baseline;text-anchor:start;white-space:normal;shape-padding:0;shape-margin:0;inline-size:0;clip-rule:nonzero;display:inline;overflow:visible;visibility:visible;isolation:auto;mix-blend-mode:normal;color-interpolation:sRGB;color-interpolation-filters:linearRGB;solid-color:#000000;solid-opacity:1;vector-effect:none;fill:#000000;fill-opacity:1;fill-rule:nonzero;stroke:none;stroke-width:1.37845;stroke-linecap:butt;stroke-linejoin:miter;stroke-miterlimit:4;stroke-dasharray:none;stroke-dashoffset:0;stroke-opacity:1;color-rendering:auto;image-rendering:auto;shape-rendering:auto;text-rendering:auto;enable-background:accumulate;stop-color:#000000;stop-opacity:1"
             d="m 51.455078,93.035156 -1.068359,5.851563 h 0.826172 3.203125 l 1.066406,-5.851563 z m 1.150391,1.378906 h 1.224609 l -0.564453,3.09375 h -1.224609 z m -2.427735,5.435547 -3.83789,20.794921 h 0.828125 3.199219 l 3.839843,-20.794921 z m 1.148438,1.378911 h 1.224609 l -3.330078,18.03906 h -1.224609 z"
             id="path1113" />
        </g>
        <g
           id="g1115"
           style="opacity:1">
          <path
             style="color:#000000;font-style:italic;font-variant:normal;font-weight:normal;font-stretch:normal;font-size:35.4961px;line-height:1.25;font-family:'URW Gothic';-inkscape-font-specification:'URW Gothic Italic';font-variant-ligatures:normal;font-variant-position:normal;font-variant-caps:normal;font-variant-numeric:normal;font-variant-alternates:normal;font-variant-east-asian:normal;font-feature-settings:normal;font-variation-settings:normal;text-indent:0;text-align:start;text-decoration:none;text-decoration-line:none;text-decoration-style:solid;text-decoration-color:#000000;letter-spacing:normal;word-spacing:normal;text-transform:none;writing-mode:lr-tb;direction:ltr;text-orientation:mixed;dominant-baseline:auto;baseline-shift:baseline;text-anchor:start;white-space:normal;shape-padding:0;shape-margin:0;inline-size:0;clip-rule:nonzero;display:inline;overflow:visible;visibility:visible;isolation:auto;mix-blend-mode:normal;color-interpolation:sRGB;color-interpolation-filters:linearRGB;solid-color:#000000;solid-opacity:1;vector-effect:none;fill:#000000;fill-opacity:1;fill-rule:nonzero;stroke:none;stroke-width:1.37845;stroke-linecap:butt;stroke-linejoin:miter;stroke-miterlimit:4;stroke-dasharray:none;stroke-dashoffset:0;stroke-opacity:1;color-rendering:auto;image-rendering:auto;shape-rendering:auto;text-rendering:auto;enable-background:accumulate;stop-color:#000000;stop-opacity:1"
             d="m 54.266278,119.9561 h 2.626711 l 1.987782,-10.68432 c 0.425953,-2.23626 0.851907,-3.30114 1.810301,-4.40152 1.27786,-1.45534 3.336634,-2.37824 5.288919,-2.37824 3.017169,0 4.933959,1.8103 4.933959,4.64999 0,0.70992 -0.106489,1.59733 -0.283969,2.62671 l -1.881294,10.18738 h 2.626712 l 1.881293,-10.18738 c 0.319465,-1.7748 0.390457,-2.34274 0.390457,-3.26564 0,-3.94007 -2.697703,-6.42479 -6.957236,-6.42479 -2.449231,0 -4.578997,0.95839 -6.673267,2.98167 l 0.46145,-2.52022 h -2.626712 z"
             id="path1117" />
          <path
             style="color:#000000;font-style:italic;font-variant:normal;font-weight:normal;font-stretch:normal;font-size:35.4961px;line-height:1.25;font-family:'URW Gothic';-inkscape-font-specification:'URW Gothic Italic';font-variant-ligatures:normal;font-variant-position:normal;font-variant-caps:normal;font-variant-numeric:normal;font-variant-alternates:normal;font-variant-east-asian:normal;font-feature-settings:normal;font-variation-settings:normal;text-indent:0;text-align:start;text-decoration:none;text-decoration-line:none;text-decoration-style:solid;text-decoration-color:#000000;letter-spacing:normal;word-spacing:normal;text-transform:none;writing-mode:lr-tb;direction:ltr;text-orientation:mixed;dominant-baseline:auto;baseline-shift:baseline;text-anchor:start;white-space:normal;shape-padding:0;shape-margin:0;inline-size:0;clip-rule:nonzero;display:inline;overflow:visible;visibility:visible;isolation:auto;mix-blend-mode:normal;color-interpolation:sRGB;color-interpolation-filters:linearRGB;solid-color:#000000;solid-opacity:1;vector-effect:none;fill:#000000;fill-opacity:1;fill-rule:nonzero;stroke:none;stroke-width:1.37845;stroke-linecap:butt;stroke-linejoin:miter;stroke-miterlimit:4;stroke-dasharray:none;stroke-dashoffset:0;stroke-opacity:1;color-rendering:auto;image-rendering:auto;shape-rendering:auto;text-rendering:auto;enable-background:accumulate;stop-color:#000000;stop-opacity:1"
             d="m 66.689453,99.388672 c -2.067529,0 -3.920824,0.852518 -5.695312,2.160158 l 0.310547,-1.699221 H 57.277344 L 53.4375,120.64453 h 0.828125 3.199219 l 2.09375,-11.24414 v -0.002 c 0.417475,-2.19103 0.772485,-3.06597 1.652344,-4.07617 1.131224,-1.287 3.035346,-2.14063 4.769531,-2.14063 1.370739,0 2.415487,0.40319 3.125,1.07227 0.709513,0.66907 1.11914,1.6239 1.11914,2.88867 0,0.64099 -0.09938,1.50025 -0.273437,2.50976 l -2.03125,10.99219 h 4.029297 l 1.986328,-10.75195 v -0.002 c 0.320853,-1.7825 0.40039,-2.42847 0.400391,-3.38671 0,-2.12734 -0.747975,-3.94639 -2.103516,-5.19727 -1.355541,-1.25088 -3.279187,-1.917968 -5.542969,-1.917968 z m 0,1.378908 c 1.995751,0 3.551181,0.57624 4.609375,1.55273 1.058194,0.9765 1.658203,2.37086 1.658203,4.1836 0,0.88755 -0.06083,1.37548 -0.378906,3.14257 l -1.775391,9.6211 h -1.226562 l 1.732422,-9.37696 v -0.004 c 0.180906,-1.04925 0.294922,-1.9653 0.294922,-2.74414 0,-1.57492 -0.54956,-2.94658 -1.552735,-3.89258 -1.003174,-0.946 -2.423883,-1.44727 -4.070312,-1.44727 -2.169496,0 -4.381933,0.9907 -5.806641,2.61329 h -0.002 v 0.002 c -1.036606,1.19018 -1.534519,2.44489 -1.96875,4.72461 v 0.002 l -1.882813,10.12305 H 55.09375 l 3.332031,-18.03906 h 1.226563 l -0.699219,3.81836 1.542969,-1.49219 c 2.00456,-1.93661 3.923925,-2.78711 6.193359,-2.78711 z"
             id="path1119" />
        </g>
        <g
           id="g1121"
           style="opacity:1">
          <path
             style="color:#000000;font-style:italic;font-variant:normal;font-weight:normal;font-stretch:normal;font-size:35.4961px;line-height:1.25;font-family:'URW Gothic';-inkscape-font-specification:'URW Gothic Italic';font-variant-ligatures:normal;font-variant-position:normal;font-variant-caps:normal;font-variant-numeric:normal;font-variant-alternates:normal;font-variant-east-asian:normal;font-feature-settings:normal;font-variation-settings:normal;text-indent:0;text-align:start;text-decoration:none;text-decoration-line:none;text-decoration-style:solid;text-decoration-color:#000000;letter-spacing:normal;word-spacing:normal;text-transform:none;writing-mode:lr-tb;direction:ltr;text-orientation:mixed;dominant-baseline:auto;baseline-shift:baseline;text-anchor:start;white-space:normal;shape-padding:0;shape-margin:0;inline-size:0;clip-rule:nonzero;display:inline;overflow:visible;visibility:visible;isolation:auto;mix-blend-mode:normal;color-interpolation:sRGB;color-interpolation-filters:linearRGB;solid-color:#000000;solid-opacity:1;vector-effect:none;fill:#000000;fill-opacity:1;fill-rule:nonzero;stroke:none;stroke-width:1.37845;stroke-linecap:butt;stroke-linejoin:miter;stroke-miterlimit:4;stroke-dasharray:none;stroke-dashoffset:0;stroke-opacity:1;color-rendering:auto;image-rendering:auto;shape-rendering:auto;text-rendering:auto;enable-background:accumulate;stop-color:#000000;stop-opacity:1"
             d="m 98.813827,100.53974 h -2.626711 l -0.63893,3.44312 c -0.922898,-1.45534 -1.313356,-1.95229 -2.058774,-2.48473 -1.313355,-0.95839 -2.91068,-1.41984 -4.791973,-1.41984 -3.478618,0 -6.495787,1.41984 -8.874026,4.11754 -1.952285,2.23626 -3.159153,5.32442 -3.159153,7.98663 0,4.82747 3.478618,8.23509 8.448072,8.23509 3.478618,0 6.318306,-1.52633 8.1996,-4.40151 l -0.248473,1.31335 c -0.354961,1.8813 -0.81641,3.15915 -1.597325,4.33053 -1.490836,2.27175 -3.940067,3.51411 -6.921739,3.51411 -1.845798,0 -3.301138,-0.46145 -4.401517,-1.41984 -0.745418,-0.67443 -1.029387,-1.06489 -1.703813,-2.7687 0,-0.0355 -0.106488,-0.21298 -0.17748,-0.42595 h -2.55572 c 0.319465,1.91679 0.63893,2.91068 1.27786,3.79808 1.526332,2.12977 3.940067,3.23015 7.09922,3.23015 3.407626,0 6.460291,-1.24237 8.554561,-3.47862 1.739309,-1.8458 2.413735,-3.51412 3.194649,-7.63166 z m -10.506846,1.95228 c 3.620603,0 6.28281,2.52022 6.28281,5.92785 0,1.8458 -0.638929,3.83358 -1.774805,5.53739 -1.774805,2.62671 -4.36602,4.04656 -7.2767,4.04656 -2.165263,0 -3.975564,-0.85191 -4.933959,-2.27175 -0.745418,-1.10038 -1.206867,-2.7332 -1.206867,-4.15305 0,-1.84579 0.745418,-3.97556 1.987782,-5.53739 1.810301,-2.34274 4.18854,-3.54961 6.921739,-3.54961 z"
             id="path1123" />
        </g>
        <g
           id="g1127"
           style="opacity:1">
          <path
             style="color:#000000;font-style:italic;font-variant:normal;font-weight:normal;font-stretch:normal;font-size:35.4961px;line-height:1.25;font-family:'URW Gothic';-inkscape-font-specification:'URW Gothic Italic';font-variant-ligatures:normal;font-variant-position:normal;font-variant-caps:normal;font-variant-numeric:normal;font-variant-alternates:normal;font-variant-east-asian:normal;font-feature-settings:normal;font-variation-settings:normal;text-indent:0;text-align:start;text-decoration:none;text-decoration-line:none;text-decoration-style:solid;text-decoration-color:#000000;letter-spacing:normal;word-spacing:normal;text-transform:none;writing-mode:lr-tb;direction:ltr;text-orientation:mixed;dominant-baseline:auto;baseline-shift:baseline;text-anchor:start;white-space:normal;shape-padding:0;shape-margin:0;inline-size:0;clip-rule:nonzero;display:inline;overflow:visible;visibility:visible;isolation:auto;mix-blend-mode:normal;color-interpolation:sRGB;color-interpolation-filters:linearRGB;solid-color:#000000;solid-opacity:1;vector-effect:none;fill:#000000;fill-opacity:1;fill-rule:nonzero;stroke:none;stroke-width:1.37845;stroke-linecap:butt;stroke-linejoin:miter;stroke-miterlimit:4;stroke-dasharray:none;stroke-dashoffset:0;stroke-opacity:1;color-rendering:auto;image-rendering:auto;shape-rendering:auto;text-rendering:auto;enable-background:accumulate;stop-color:#000000;stop-opacity:1"
             d="m 99.701111,114.24123 c -0.07099,0.9229 -0.106488,1.41984 -0.106488,1.56183 0,0.99389 0.425957,2.12977 1.100377,2.94618 0.9229,1.10037 2.27175,1.66831 4.08205,1.66831 3.97557,0 7.20571,-3.23014 7.20571,-7.17021 0,-1.49084 -0.46145,-2.48473 -1.52633,-3.23015 -0.49695,-0.35496 -0.49695,-0.35496 -2.91068,-1.45534 -1.77481,-0.8519 -1.77481,-0.8519 -2.02328,-1.02938 -0.42595,-0.35496 -0.81641,-1.17137 -0.81641,-1.77481 0,-1.70381 1.66832,-3.26564 3.44312,-3.26564 1.59733,0 2.30725,0.8874 2.30725,2.83969 h 2.66221 c 0.0355,-0.39046 0.0355,-0.78091 0.0355,-1.06488 0,-2.41374 -1.88129,-4.18854 -4.508,-4.18854 -1.8458,0 -3.6561,0.78091 -4.93396,2.16526 -1.02939,1.10038 -1.73931,2.83969 -1.73931,4.22403 0,0.9229 0.35496,1.91679 0.9229,2.55572 0.60343,0.67443 1.10038,0.9584 3.23015,1.8813 2.6622,1.17137 3.12365,1.63282 3.12365,3.12365 0,2.12977 -1.84579,3.97557 -4.01106,3.97557 -1.13587,0 -2.05877,-0.46145 -2.55572,-1.27786 -0.31946,-0.53244 -0.39045,-0.9584 -0.39045,-2.48473 z"
             id="path1129" />
          <path
             style="color:#000000;font-style:italic;font-variant:normal;font-weight:normal;font-stretch:normal;font-size:35.4961px;line-height:1.25;font-family:'URW Gothic';-inkscape-font-specification:'URW Gothic Italic';font-variant-ligatures:normal;font-variant-position:normal;font-variant-caps:normal;font-variant-numeric:normal;font-variant-alternates:normal;font-variant-east-asian:normal;font-feature-settings:normal;font-variation-settings:normal;text-indent:0;text-align:start;text-decoration:none;text-decoration-line:none;text-decoration-style:solid;text-decoration-color:#000000;letter-spacing:normal;word-spacing:normal;text-transform:none;writing-mode:lr-tb;direction:ltr;text-orientation:mixed;dominant-baseline:auto;baseline-shift:baseline;text-anchor:start;white-space:normal;shape-padding:0;shape-margin:0;inline-size:0;clip-rule:nonzero;display:inline;overflow:visible;visibility:visible;isolation:auto;mix-blend-mode:normal;color-interpolation:sRGB;color-interpolation-filters:linearRGB;solid-color:#000000;solid-opacity:1;vector-effect:none;fill:#000000;fill-opacity:1;fill-rule:nonzero;stroke:none;stroke-width:1.37845;stroke-linecap:butt;stroke-linejoin:miter;stroke-miterlimit:4;stroke-dasharray:none;stroke-dashoffset:0;stroke-opacity:1;color-rendering:auto;image-rendering:auto;shape-rendering:auto;text-rendering:auto;enable-background:accumulate;stop-color:#000000;stop-opacity:1"
             d="m 108.64648,99.388672 c -2.03875,0 -4.02738,0.858978 -5.4375,2.384768 -1.16892,1.24953 -1.92578,3.07338 -1.92578,4.69336 0,1.09962 0.38867,2.21605 1.09766,3.01367 v 0.002 h 0.002 c 0.33236,0.37146 0.69223,0.68417 1.20899,0.98438 0.51585,0.29968 1.18851,0.60579 2.25586,1.06836 8.3e-4,3.6e-4 10e-4,-3.7e-4 0.002,0 0.001,4.8e-4 8.4e-4,10e-4 0.002,0.002 1.30995,0.57667 2.03514,0.98435 2.34766,1.29687 0.31303,0.31303 0.36133,0.51906 0.36133,1.19336 0,1.73156 -1.54869,3.28711 -3.32227,3.28711 -0.9492,0 -1.60693,-0.35606 -1.9668,-0.94726 -0.12771,-0.2133 -0.17678,-0.32977 -0.22265,-0.61914 -0.0462,-0.29129 -0.0664,-0.75338 -0.0664,-1.50586 v -0.68946 H 99.0625 l -0.04883,0.63477 c -0.07109,0.92425 -0.107422,1.35837 -0.107422,1.61523 0,1.19082 0.474231,2.43622 1.257812,3.38477 l 0.002,0.002 v 0.002 c 1.06034,1.26424 2.65687,1.91601 4.61132,1.91601 4.3489,0 7.89454,-3.54261 7.89454,-7.85937 0,-1.63306 -0.59628,-2.93809 -1.82032,-3.79493 -0.24588,-0.17555 -0.43914,-0.30745 -0.82422,-0.5 -0.38579,-0.19289 -0.98976,-0.46747 -2.18359,-1.01171 l -0.0117,-0.006 c -0.87418,-0.41961 -1.32388,-0.63645 -1.55859,-0.75586 -0.21413,-0.10894 -0.22376,-0.12272 -0.31641,-0.18946 -0.18795,-0.16655 -0.5625,-0.92961 -0.5625,-1.23242 0,-1.2539 1.38345,-2.57617 2.75391,-2.57617 0.67103,0 0.98856,0.1497 1.21679,0.43164 0.22824,0.28194 0.40235,0.82615 0.40235,1.71875 v 0.68945 h 3.98047 l 0.0566,-0.62695 c 0.0393,-0.43172 0.0391,-0.84298 0.0391,-1.12695 0,-2.77187 -2.26009,-4.878908 -5.19727,-4.878908 z m 0,1.378908 c 2.31625,0 3.81836,1.44438 3.81836,3.5 0,0.10627 -0.01,0.25035 -0.0117,0.375 h -1.38281 c -0.0731,-0.73877 -0.23207,-1.40146 -0.63281,-1.89649 -0.52606,-0.64983 -1.36276,-0.94336 -2.28906,-0.94336 -2.17915,0 -4.13086,1.80136 -4.13086,3.95508 0,0.90075 0.39836,1.74961 1.06445,2.30469 l 0.0195,0.0156 0.0195,0.0156 c 0.12424,0.0887 0.25802,0.17743 0.52735,0.31445 0.26933,0.13703 0.7122,0.34944 1.59961,0.77539 l 0.006,0.002 0.006,0.004 c 1.20686,0.55019 1.81256,0.82621 2.15234,0.9961 0.33978,0.16989 0.39606,0.21509 0.64453,0.39257 l 0.002,0.002 0.002,0.002 c 0.90572,0.63401 1.23242,1.3174 1.23242,2.66602 0,3.56337 -2.91339,6.48047 -6.51563,6.48047 -1.66361,0 -2.76555,-0.48427 -3.55078,-1.41797 v -0.002 c -0.56461,-0.68426 -0.94336,-1.70943 -0.94336,-2.50586 0,-0.0157 0.0373,-0.53323 0.0606,-0.87304 h 1.29297 c 0.0109,0.35747 0.009,0.77292 0.0508,1.03515 0.0692,0.43639 0.21444,0.7988 0.4043,1.11524 l 0.002,0.002 v 0.002 c 0.63403,1.04162 1.822,1.60938 3.14453,1.60938 2.55696,0 4.70117,-2.13803 4.70117,-4.66602 0,-0.81652 -0.18238,-1.58472 -0.76562,-2.16796 -0.58325,-0.58325 -1.42133,-0.99273 -2.76953,-1.58594 h -0.002 l -0.002,-0.002 c -1.05917,-0.45897 -1.70022,-0.75498 -2.11523,-0.99609 -0.41502,-0.24111 -0.60393,-0.40797 -0.875,-0.71094 -0.42689,-0.48024 -0.74805,-1.35148 -0.74805,-2.09765 0,-1.14871 0.66287,-2.80073 1.55273,-3.75196 l 0.002,-0.002 0.002,-0.002 c 1.14543,-1.24089 2.77633,-1.94336 4.42773,-1.94336 z"
             id="path1131" />
        </g>
        <g
           id="g1133"
           style="opacity:1">
          <path
             style="color:#000000;font-style:italic;font-variant:normal;font-weight:normal;font-stretch:normal;font-size:35.4961px;line-height:1.25;font-family:'URW Gothic';-inkscape-font-specification:'URW Gothic Italic';font-variant-ligatures:normal;font-variant-position:normal;font-variant-caps:normal;font-variant-numeric:normal;font-variant-alternates:normal;font-variant-east-asian:normal;font-feature-settings:normal;font-variation-settings:normal;text-indent:0;text-align:start;text-decoration:none;text-decoration-line:none;text-decoration-style:solid;text-decoration-color:#000000;letter-spacing:normal;word-spacing:normal;text-transform:none;writing-mode:lr-tb;direction:ltr;text-orientation:mixed;dominant-baseline:auto;baseline-shift:baseline;text-anchor:start;white-space:normal;shape-padding:0;shape-margin:0;inline-size:0;clip-rule:nonzero;display:inline;overflow:visible;visibility:visible;isolation:auto;mix-blend-mode:normal;color-interpolation:sRGB;color-interpolation-filters:linearRGB;solid-color:#000000;solid-opacity:1;vector-effect:none;fill:#000000;fill-opacity:1;fill-rule:nonzero;stroke:none;stroke-width:1.37845;stroke-linecap:butt;stroke-linejoin:miter;stroke-miterlimit:4;stroke-dasharray:none;stroke-dashoffset:0;stroke-opacity:1;color-rendering:auto;image-rendering:auto;shape-rendering:auto;text-rendering:auto;enable-background:accumulate;stop-color:#000000;stop-opacity:1"
             d="m 147.26578,100.53974 h -2.62671 l -0.63893,3.44312 c -0.70992,-1.38435 -1.20686,-1.98778 -2.16526,-2.62671 -1.27786,-0.85191 -2.91068,-1.27786 -4.75648,-1.27786 -6.60227,0 -12.28165,5.64388 -12.28165,12.21066 0,4.89846 3.47862,8.1286 8.69655,8.1286 3.30113,0 5.32441,-0.95839 8.1996,-3.86907 l -0.63893,3.40762 h 2.62671 z m -10.43585,1.95228 c 3.54961,0 6.17632,2.59122 6.17632,6.14083 0,4.93395 -4.25953,9.37097 -8.98051,9.37097 -3.86908,0 -6.49579,-2.59122 -6.49579,-6.3893 0,-4.86297 4.36602,-9.1225 9.29998,-9.1225 z"
             id="path1135" />
          <path
             style="color:#000000;font-style:italic;font-variant:normal;font-weight:normal;font-stretch:normal;font-size:35.4961px;line-height:1.25;font-family:'URW Gothic';-inkscape-font-specification:'URW Gothic Italic';font-variant-ligatures:normal;font-variant-position:normal;font-variant-caps:normal;font-variant-numeric:normal;font-variant-alternates:normal;font-variant-east-asian:normal;font-feature-settings:normal;font-variation-settings:normal;text-indent:0;text-align:start;text-decoration:none;text-decoration-line:none;text-decoration-style:solid;text-decoration-color:#000000;letter-spacing:normal;word-spacing:normal;text-transform:none;writing-mode:lr-tb;direction:ltr;text-orientation:mixed;dominant-baseline:auto;baseline-shift:baseline;text-anchor:start;white-space:normal;shape-padding:0;shape-margin:0;inline-size:0;clip-rule:nonzero;display:inline;overflow:visible;visibility:visible;isolation:auto;mix-blend-mode:normal;color-interpolation:sRGB;color-interpolation-filters:linearRGB;solid-color:#000000;solid-opacity:1;vector-effect:none;fill:#000000;fill-opacity:1;fill-rule:nonzero;stroke:none;stroke-width:1.37845;stroke-linecap:butt;stroke-linejoin:miter;stroke-miterlimit:4;stroke-dasharray:none;stroke-dashoffset:0;stroke-opacity:1;color-rendering:auto;image-rendering:auto;shape-rendering:auto;text-rendering:auto;enable-background:accumulate;stop-color:#000000;stop-opacity:1"
             d="m 137.07812,99.388672 c -6.99505,0 -12.9707,5.936218 -12.9707,12.900388 0,2.61238 0.94534,4.85003 2.61133,6.4043 1.66599,1.55427 4.0242,2.41406 6.77539,2.41406 2.8168,0 4.9215,-1.0353 7.19336,-2.9414 l -0.46484,2.47851 h 4.03125 l 3.83984,-20.794921 h -0.82813 -3.19921 l -0.42383,2.281251 c -0.41032,-0.52761 -0.85433,-0.96669 -1.42578,-1.34766 -1.4151,-0.943402 -3.18684,-1.394528 -5.13868,-1.394528 z m 0,1.378908 c 1.73977,0 3.23439,0.40169 4.375,1.16211 0.88325,0.58882 1.24616,1.02668 1.9336,2.36719 l 0.92187,1.79882 0.9043,-4.86718 h 1.22461 l -3.33008,18.03906 h -1.22461 l 0.90235,-4.80664 -1.58204,1.60351 c -2.81474,2.84949 -4.54125,3.66407 -7.70898,3.66407 -2.46674,0 -4.45813,-0.75756 -5.83594,-2.04297 -1.3778,-1.28542 -2.17187,-3.11041 -2.17187,-5.39649 0,-6.16939 5.38231,-11.52148 11.59179,-11.52148 z m -0.24804,1.03515 c -5.33064,0 -9.99024,4.53701 -9.99024,9.8125 0,2.05793 0.72493,3.85031 2.00391,5.10938 1.27898,1.25907 3.09324,1.96875 5.18164,1.96875 5.15283,0 9.66992,-4.72992 9.66992,-10.06055 0,-3.88962 -2.9802,-6.83008 -6.86523,-6.83008 z m 0,1.37891 c 3.21418,0 5.48633,2.24158 5.48633,5.45117 0,4.53728 -4.00189,8.68164 -8.29102,8.68164 -1.78068,0 -3.21319,-0.5862 -4.21484,-1.57226 -1.00165,-0.98606 -1.5918,-2.3868 -1.5918,-4.12696 0,-4.45044 4.07404,-8.43359 8.61133,-8.43359 z"
             id="path1137" />
        </g>
        <g
           id="g1139"
           style="opacity:1">
          <path
             style="color:#000000;font-style:italic;font-variant:normal;font-weight:normal;font-stretch:normal;font-size:35.4961px;line-height:1.25;font-family:'URW Gothic';-inkscape-font-specification:'URW Gothic Italic';font-variant-ligatures:normal;font-variant-position:normal;font-variant-caps:normal;font-variant-numeric:normal;font-variant-alternates:normal;font-variant-east-asian:normal;font-feature-settings:normal;font-variation-settings:normal;text-indent:0;text-align:start;text-decoration:none;text-decoration-line:none;text-decoration-style:solid;text-decoration-color:#000000;letter-spacing:normal;word-spacing:normal;text-transform:none;writing-mode:lr-tb;direction:ltr;text-orientation:mixed;dominant-baseline:auto;baseline-shift:baseline;text-anchor:start;white-space:normal;shape-padding:0;shape-margin:0;inline-size:0;clip-rule:nonzero;display:inline;overflow:visible;visibility:visible;isolation:auto;mix-blend-mode:normal;color-interpolation:sRGB;color-interpolation-filters:linearRGB;solid-color:#000000;solid-opacity:1;vector-effect:none;fill:#000000;fill-opacity:1;fill-rule:nonzero;stroke:none;stroke-width:1.37845;stroke-linecap:butt;stroke-linejoin:miter;stroke-miterlimit:4;stroke-dasharray:none;stroke-dashoffset:0;stroke-opacity:1;color-rendering:auto;image-rendering:auto;shape-rendering:auto;text-rendering:auto;enable-background:accumulate;stop-color:#000000;stop-opacity:1"
             d="m 148.15314,119.9561 h 2.62671 l 1.98778,-10.68432 c 0.42596,-2.23626 0.85191,-3.30114 1.8103,-4.40152 1.27786,-1.45534 3.33664,-2.37824 5.28892,-2.37824 3.01717,0 4.93396,1.8103 4.93396,4.64999 0,0.70992 -0.10649,1.59733 -0.28397,2.62671 l -1.88129,10.18738 h 2.62671 l 1.88129,-10.18738 c 0.31947,-1.7748 0.39046,-2.34274 0.39046,-3.26564 0,-3.94007 -2.6977,-6.42479 -6.95723,-6.42479 -2.44924,0 -4.579,0.95839 -6.67327,2.98167 l 0.46145,-2.52022 h -2.62671 z"
             id="path1141" />
          <path
             style="color:#000000;font-style:italic;font-variant:normal;font-weight:normal;font-stretch:normal;font-size:35.4961px;line-height:1.25;font-family:'URW Gothic';-inkscape-font-specification:'URW Gothic Italic';font-variant-ligatures:normal;font-variant-position:normal;font-variant-caps:normal;font-variant-numeric:normal;font-variant-alternates:normal;font-variant-east-asian:normal;font-feature-settings:normal;font-variation-settings:normal;text-indent:0;text-align:start;text-decoration:none;text-decoration-line:none;text-decoration-style:solid;text-decoration-color:#000000;letter-spacing:normal;word-spacing:normal;text-transform:none;writing-mode:lr-tb;direction:ltr;text-orientation:mixed;dominant-baseline:auto;baseline-shift:baseline;text-anchor:start;white-space:normal;shape-padding:0;shape-margin:0;inline-size:0;clip-rule:nonzero;display:inline;overflow:visible;visibility:visible;isolation:auto;mix-blend-mode:normal;color-interpolation:sRGB;color-interpolation-filters:linearRGB;solid-color:#000000;solid-opacity:1;vector-effect:none;fill:#000000;fill-opacity:1;fill-rule:nonzero;stroke:none;stroke-width:1.37845;stroke-linecap:butt;stroke-linejoin:miter;stroke-miterlimit:4;stroke-dasharray:none;stroke-dashoffset:0;stroke-opacity:1;color-rendering:auto;image-rendering:auto;shape-rendering:auto;text-rendering:auto;enable-background:accumulate;stop-color:#000000;stop-opacity:1"
             d="m 160.57617,99.388672 c -2.06753,0 -3.92082,0.852518 -5.69531,2.160158 l 0.31055,-1.699221 h -4.02735 l -3.83984,20.794921 h 0.82812 3.20118 l 2.09179,-11.24414 v -0.002 c 0.41749,-2.19103 0.77249,-3.06597 1.65235,-4.07617 1.13122,-1.287 3.03535,-2.14063 4.76953,-2.14063 1.37074,0 2.41548,0.40319 3.125,1.07227 0.70951,0.66907 1.11914,1.6239 1.11914,2.88867 0,0.64099 -0.0994,1.50025 -0.27344,2.50976 l -2.03125,10.99219 h 4.0293 l 1.98633,-10.75195 v -0.002 c 0.32085,-1.78251 0.40039,-2.42847 0.40039,-3.38671 0,-2.12734 -0.74603,-3.94639 -2.10157,-5.19727 -1.35554,-1.25088 -3.28114,-1.917968 -5.54492,-1.917968 z m 0,1.378908 c 1.99575,0 3.55118,0.57624 4.60938,1.55273 1.05819,0.9765 1.66015,2.37086 1.66015,4.1836 0,0.88755 -0.0628,1.37548 -0.38086,3.14257 l -1.77539,9.6211 h -1.22656 l 1.73242,-9.37696 v -0.004 c 0.18091,-1.04925 0.29492,-1.9653 0.29492,-2.74414 0,-1.57492 -0.54956,-2.94658 -1.55273,-3.89258 -1.00317,-0.946 -2.42388,-1.44727 -4.07031,-1.44727 -2.16949,0 -4.38193,0.9907 -5.80664,2.61329 h -0.002 v 0.002 c -1.0366,1.19018 -1.53451,2.44489 -1.96875,4.72461 v 0.002 l -1.88281,10.12305 h -1.22656 l 3.33203,-18.03906 h 1.22656 l -0.69922,3.81836 1.54297,-1.49219 c 2.00456,-1.93661 3.92392,-2.78711 6.19336,-2.78711 z"
             id="path1143" />
        </g>
        <g
           id="g1145"
           style="opacity:1">
          <path
             style="color:#000000;font-style:italic;font-variant:normal;font-weight:normal;font-stretch:normal;font-size:35.4961px;line-height:1.25;font-family:'URW Gothic';-inkscape-font-specification:'URW Gothic Italic';font-variant-ligatures:normal;font-variant-position:normal;font-variant-caps:normal;font-variant-numeric:normal;font-variant-alternates:normal;font-variant-east-asian:normal;font-feature-settings:normal;font-variation-settings:normal;text-indent:0;text-align:start;text-decoration:none;text-decoration-line:none;text-decoration-style:solid;text-decoration-color:#000000;letter-spacing:normal;word-spacing:normal;text-transform:none;writing-mode:lr-tb;direction:ltr;text-orientation:mixed;dominant-baseline:auto;baseline-shift:baseline;text-anchor:start;white-space:normal;shape-padding:0;shape-margin:0;inline-size:0;clip-rule:nonzero;display:inline;overflow:visible;visibility:visible;isolation:auto;mix-blend-mode:normal;color-interpolation:sRGB;color-interpolation-filters:linearRGB;solid-color:#000000;solid-opacity:1;vector-effect:none;fill:#000000;fill-opacity:1;fill-rule:nonzero;stroke:none;stroke-width:1.37845;stroke-linecap:butt;stroke-linejoin:miter;stroke-miterlimit:4;stroke-dasharray:none;stroke-dashoffset:0;stroke-opacity:1;color-rendering:auto;image-rendering:auto;shape-rendering:auto;text-rendering:auto;enable-background:accumulate;stop-color:#000000;stop-opacity:1"
             d="m 194.511,93.724484 h -2.62671 l -1.8458,9.903416 c -1.63282,-2.41374 -3.86907,-3.54961 -6.92174,-3.54961 -6.63777,0 -12.42364,5.67937 -12.42364,12.17516 0,4.72098 3.6916,8.1641 8.76754,8.1641 3.33664,0 5.67938,-1.13587 8.1996,-3.97556 l -0.63893,3.51411 h 2.62671 z m -11.96219,8.767536 c 3.72709,0 6.53129,2.62671 6.53129,6.17632 0,4.82747 -4.40152,9.33548 -9.08701,9.33548 -3.94006,0 -6.56678,-2.59122 -6.56678,-6.4248 0,-4.75647 4.36603,-9.087 9.1225,-9.087 z"
             id="path1147" />
          <path
             style="color:#000000;font-style:italic;font-variant:normal;font-weight:normal;font-stretch:normal;font-size:35.4961px;line-height:1.25;font-family:'URW Gothic';-inkscape-font-specification:'URW Gothic Italic';font-variant-ligatures:normal;font-variant-position:normal;font-variant-caps:normal;font-variant-numeric:normal;font-variant-alternates:normal;font-variant-east-asian:normal;font-feature-settings:normal;font-variation-settings:normal;text-indent:0;text-align:start;text-decoration:none;text-decoration-line:none;text-decoration-style:solid;text-decoration-color:#000000;letter-spacing:normal;word-spacing:normal;text-transform:none;writing-mode:lr-tb;direction:ltr;text-orientation:mixed;dominant-baseline:auto;baseline-shift:baseline;text-anchor:start;white-space:normal;shape-padding:0;shape-margin:0;inline-size:0;clip-rule:nonzero;display:inline;overflow:visible;visibility:visible;isolation:auto;mix-blend-mode:normal;color-interpolation:sRGB;color-interpolation-filters:linearRGB;solid-color:#000000;solid-opacity:1;vector-effect:none;fill:#000000;fill-opacity:1;fill-rule:nonzero;stroke:none;stroke-width:1.37845;stroke-linecap:butt;stroke-linejoin:miter;stroke-miterlimit:4;stroke-dasharray:none;stroke-dashoffset:0;stroke-opacity:1;color-rendering:auto;image-rendering:auto;shape-rendering:auto;text-rendering:auto;enable-background:accumulate;stop-color:#000000;stop-opacity:1"
             d="m 191.3125,93.035156 -1.68945,9.060544 c -1.66476,-1.77129 -3.82985,-2.707028 -6.50586,-2.707028 -7.03091,0 -13.11328,5.960178 -13.11328,12.865238 0,5.08027 4.06941,8.85351 9.45703,8.85351 2.79392,0 5.02665,-0.86497 7.14062,-2.6914 l -0.40625,2.22851 h 4.02539 l 5.11914,-27.609374 h -0.82812 z m 1.14453,1.378906 h 1.22656 l -4.60937,24.853518 h -1.22656 l 0.93164,-5.125 -1.63477,1.8418 c -2.44003,2.74933 -4.50337,3.74414 -7.68359,3.74414 -4.76426,0 -8.07813,-3.11293 -8.07813,-7.47461 0,-6.08653 5.48975,-11.48633 11.73438,-11.48633 2.8817,0 4.8242,0.99114 6.34961,3.24609 l 0.9414,1.39063 z m -9.9082,7.388668 c -5.17481,0 -9.8125,4.59716 -9.8125,9.77539 0,2.07421 0.72447,3.87827 2.01367,5.14258 1.2892,1.26432 3.12107,1.97266 5.24219,1.97266 5.12757,0 9.77734,-4.77898 9.77734,-10.02539 0,-3.9126 -3.16979,-6.86524 -7.2207,-6.86524 z m 0,1.37891 c 3.40326,0 5.84179,2.29971 5.84179,5.48633 0,4.40853 -4.15502,8.64648 -8.39843,8.64648 -1.81894,0 -3.26817,-0.58843 -4.27735,-1.57812 -1.00917,-0.98969 -1.59961,-2.39883 -1.59961,-4.15821 0,-4.3347 4.09546,-8.39648 8.4336,-8.39648 z"
             id="path1149" />
        </g>
        <g
           id="g1151"
           style="opacity:1">
          <path
             style="color:#000000;font-style:italic;font-variant:normal;font-weight:normal;font-stretch:normal;font-size:35.4961px;line-height:1.25;font-family:'URW Gothic';-inkscape-font-specification:'URW Gothic Italic';font-variant-ligatures:normal;font-variant-position:normal;font-variant-caps:normal;font-variant-numeric:normal;font-variant-alternates:normal;font-variant-east-asian:normal;font-feature-settings:normal;font-variation-settings:normal;text-indent:0;text-align:start;text-decoration:none;text-decoration-line:none;text-decoration-style:solid;text-decoration-color:#000000;letter-spacing:normal;word-spacing:normal;text-transform:none;writing-mode:lr-tb;direction:ltr;text-orientation:mixed;dominant-baseline:auto;baseline-shift:baseline;text-anchor:start;white-space:normal;shape-padding:0;shape-margin:0;inline-size:0;clip-rule:nonzero;display:inline;overflow:visible;visibility:visible;isolation:auto;mix-blend-mode:normal;color-interpolation:sRGB;color-interpolation-filters:linearRGB;solid-color:#000000;solid-opacity:1;vector-effect:none;fill:#000000;fill-opacity:1;fill-rule:nonzero;stroke:none;stroke-width:1.37845;stroke-linecap:butt;stroke-linejoin:miter;stroke-miterlimit:4;stroke-dasharray:none;stroke-dashoffset:0;stroke-opacity:1;color-rendering:auto;image-rendering:auto;shape-rendering:auto;text-rendering:auto;enable-background:accumulate;stop-color:#000000;stop-opacity:1"
             d="m 204.41435,119.9561 h 2.62671 l 1.31336,-7.17021 4.18854,-4.18854 6.63777,11.35875 h 3.30113 l -7.88013,-13.45302 12.7431,-12.778596 h -3.30114 l -14.94386,15.085846 2.8042,-15.085846 h -2.62672 z"
             id="path1153" />
          <path
             style="color:#000000;font-style:italic;font-variant:normal;font-weight:normal;font-stretch:normal;font-size:35.4961px;line-height:1.25;font-family:'URW Gothic';-inkscape-font-specification:'URW Gothic Italic';font-variant-ligatures:normal;font-variant-position:normal;font-variant-caps:normal;font-variant-numeric:normal;font-variant-alternates:normal;font-variant-east-asian:normal;font-feature-settings:normal;font-variation-settings:normal;text-indent:0;text-align:start;text-decoration:none;text-decoration-line:none;text-decoration-style:solid;text-decoration-color:#000000;letter-spacing:normal;word-spacing:normal;text-transform:none;writing-mode:lr-tb;direction:ltr;text-orientation:mixed;dominant-baseline:auto;baseline-shift:baseline;text-anchor:start;white-space:normal;shape-padding:0;shape-margin:0;inline-size:0;clip-rule:nonzero;display:inline;overflow:visible;visibility:visible;isolation:auto;mix-blend-mode:normal;color-interpolation:sRGB;color-interpolation-filters:linearRGB;solid-color:#000000;solid-opacity:1;vector-effect:none;fill:#000000;fill-opacity:1;fill-rule:nonzero;stroke:none;stroke-width:1.37845;stroke-linecap:butt;stroke-linejoin:miter;stroke-miterlimit:4;stroke-dasharray:none;stroke-dashoffset:0;stroke-opacity:1;color-rendering:auto;image-rendering:auto;shape-rendering:auto;text-rendering:auto;enable-background:accumulate;stop-color:#000000;stop-opacity:1"
             d="m 208.70508,93.035156 -5.11914,27.609374 h 0.82812 3.20117 l 1.37891,-7.52344 3.4043,-3.40429 6.38672,10.92773 h 4.89843 l -8.21875,-14.03125 13.54102,-13.578124 h -5.25 l -13.57031,13.699224 2.54687,-13.699224 z m 1.14453,1.378906 h 1.22461 l -3.06055,16.472658 16.31836,-16.472658 h 1.35352 l -11.94727,11.978518 7.54102,12.875 h -1.70313 l -6.88867,-11.78906 -4.97266,4.97265 -1.24804,6.81641 h -1.22461 z"
             id="path1155" />
        </g>
        <g
           id="g1157"
           style="opacity:1">
          <path
             style="color:#000000;font-style:italic;font-variant:normal;font-weight:normal;font-stretch:normal;font-size:35.4961px;line-height:1.25;font-family:'URW Gothic';-inkscape-font-specification:'URW Gothic Italic';font-variant-ligatures:normal;font-variant-position:normal;font-variant-caps:normal;font-variant-numeric:normal;font-variant-alternates:normal;font-variant-east-asian:normal;font-feature-settings:normal;font-variation-settings:normal;text-indent:0;text-align:start;text-decoration:none;text-decoration-line:none;text-decoration-style:solid;text-decoration-color:#000000;letter-spacing:normal;word-spacing:normal;text-transform:none;writing-mode:lr-tb;direction:ltr;text-orientation:mixed;dominant-baseline:auto;baseline-shift:baseline;text-anchor:start;white-space:normal;shape-padding:0;shape-margin:0;inline-size:0;clip-rule:nonzero;display:inline;overflow:visible;visibility:visible;isolation:auto;mix-blend-mode:normal;color-interpolation:sRGB;color-interpolation-filters:linearRGB;solid-color:#000000;solid-opacity:1;vector-effect:none;fill:#000000;fill-opacity:1;fill-rule:nonzero;stroke:none;stroke-width:1.37845;stroke-linecap:butt;stroke-linejoin:miter;stroke-miterlimit:4;stroke-dasharray:none;stroke-dashoffset:0;stroke-opacity:1;color-rendering:auto;image-rendering:auto;shape-rendering:auto;text-rendering:auto;enable-background:accumulate;stop-color:#000000;stop-opacity:1"
             d="m 225.00203,119.9561 h 2.62671 l 3.58511,-19.41636 h -2.62671 z m 4.04656,-21.759107 h 2.62671 l 0.81641,-4.472509 H 229.865 Z"
             id="path1159" />
          <path
             style="color:#000000;font-style:italic;font-variant:normal;font-weight:normal;font-stretch:normal;font-size:35.4961px;line-height:1.25;font-family:'URW Gothic';-inkscape-font-specification:'URW Gothic Italic';font-variant-ligatures:normal;font-variant-position:normal;font-variant-caps:normal;font-variant-numeric:normal;font-variant-alternates:normal;font-variant-east-asian:normal;font-feature-settings:normal;font-variation-settings:normal;text-indent:0;text-align:start;text-decoration:none;text-decoration-line:none;text-decoration-style:solid;text-decoration-color:#000000;letter-spacing:normal;word-spacing:normal;text-transform:none;writing-mode:lr-tb;direction:ltr;text-orientation:mixed;dominant-baseline:auto;baseline-shift:baseline;text-anchor:start;white-space:normal;shape-padding:0;shape-margin:0;inline-size:0;clip-rule:nonzero;display:inline;overflow:visible;visibility:visible;isolation:auto;mix-blend-mode:normal;color-interpolation:sRGB;color-interpolation-filters:linearRGB;solid-color:#000000;solid-opacity:1;vector-effect:none;fill:#000000;fill-opacity:1;fill-rule:nonzero;stroke:none;stroke-width:1.37845;stroke-linecap:butt;stroke-linejoin:miter;stroke-miterlimit:4;stroke-dasharray:none;stroke-dashoffset:0;stroke-opacity:1;color-rendering:auto;image-rendering:auto;shape-rendering:auto;text-rendering:auto;enable-background:accumulate;stop-color:#000000;stop-opacity:1"
             d="m 229.29102,93.035156 -1.06836,5.851563 h 0.82617 3.20117 l 1.06836,-5.851563 z m 1.14843,1.378906 h 1.22657 l -0.56641,3.09375 H 229.875 Z m -2.42578,5.435547 -3.83984,20.794921 h 0.82812 3.20117 l 3.8379,-20.794921 z m 1.14649,1.378911 h 1.22461 l -3.33008,18.03906 h -1.22461 z"
             id="path1161" />
        </g>
        <g
           id="g1163"
           style="opacity:1">
          <path
             style="color:#000000;font-style:italic;font-variant:normal;font-weight:normal;font-stretch:normal;font-size:35.4961px;line-height:1.25;font-family:'URW Gothic';-inkscape-font-specification:'URW Gothic Italic';font-variant-ligatures:normal;font-variant-position:normal;font-variant-caps:normal;font-variant-numeric:normal;font-variant-alternates:normal;font-variant-east-asian:normal;font-feature-settings:normal;font-variation-settings:normal;text-indent:0;text-align:start;text-decoration:none;text-decoration-line:none;text-decoration-style:solid;text-decoration-color:#000000;letter-spacing:normal;word-spacing:normal;text-transform:none;writing-mode:lr-tb;direction:ltr;text-orientation:mixed;dominant-baseline:auto;baseline-shift:baseline;text-anchor:start;white-space:normal;shape-padding:0;shape-margin:0;inline-size:0;clip-rule:nonzero;display:inline;overflow:visible;visibility:visible;isolation:auto;mix-blend-mode:normal;color-interpolation:sRGB;color-interpolation-filters:linearRGB;solid-color:#000000;solid-opacity:1;vector-effect:none;fill:#000000;fill-opacity:1;fill-rule:nonzero;stroke:none;stroke-width:1.37845;stroke-linecap:butt;stroke-linejoin:miter;stroke-miterlimit:4;stroke-dasharray:none;stroke-dashoffset:0;stroke-opacity:1;color-rendering:auto;image-rendering:auto;shape-rendering:auto;text-rendering:auto;enable-background:accumulate;stop-color:#000000;stop-opacity:1"
             d="m 231.49778,114.24123 c -0.071,0.9229 -0.10649,1.41984 -0.10649,1.56183 0,0.99389 0.42596,2.12977 1.10038,2.94618 0.9229,1.10037 2.27175,1.66831 4.08205,1.66831 3.97557,0 7.20571,-3.23014 7.20571,-7.17021 0,-1.49084 -0.46145,-2.48473 -1.52633,-3.23015 -0.49695,-0.35496 -0.49695,-0.35496 -2.91068,-1.45534 -1.77481,-0.8519 -1.77481,-0.8519 -2.02328,-1.02938 -0.42595,-0.35496 -0.81641,-1.17137 -0.81641,-1.77481 0,-1.70381 1.66832,-3.26564 3.44312,-3.26564 1.59733,0 2.30725,0.8874 2.30725,2.83969 h 2.66221 c 0.0355,-0.39046 0.0355,-0.78091 0.0355,-1.06488 0,-2.41374 -1.88129,-4.18854 -4.508,-4.18854 -1.8458,0 -3.6561,0.78091 -4.93396,2.16526 -1.02939,1.10038 -1.73931,2.83969 -1.73931,4.22403 0,0.9229 0.35496,1.91679 0.9229,2.55572 0.60343,0.67443 1.10038,0.9584 3.23014,1.8813 2.66221,1.17137 3.12366,1.63282 3.12366,3.12365 0,2.12977 -1.8458,3.97557 -4.01106,3.97557 -1.13587,0 -2.05877,-0.46145 -2.55572,-1.27786 -0.31946,-0.53244 -0.39045,-0.9584 -0.39045,-2.48473 z"
             id="path1165" />
          <path
             style="color:#000000;font-style:italic;font-variant:normal;font-weight:normal;font-stretch:normal;font-size:35.4961px;line-height:1.25;font-family:'URW Gothic';-inkscape-font-specification:'URW Gothic Italic';font-variant-ligatures:normal;font-variant-position:normal;font-variant-caps:normal;font-variant-numeric:normal;font-variant-alternates:normal;font-variant-east-asian:normal;font-feature-settings:normal;font-variation-settings:normal;text-indent:0;text-align:start;text-decoration:none;text-decoration-line:none;text-decoration-style:solid;text-decoration-color:#000000;letter-spacing:normal;word-spacing:normal;text-transform:none;writing-mode:lr-tb;direction:ltr;text-orientation:mixed;dominant-baseline:auto;baseline-shift:baseline;text-anchor:start;white-space:normal;shape-padding:0;shape-margin:0;inline-size:0;clip-rule:nonzero;display:inline;overflow:visible;visibility:visible;isolation:auto;mix-blend-mode:normal;color-interpolation:sRGB;color-interpolation-filters:linearRGB;solid-color:#000000;solid-opacity:1;vector-effect:none;fill:#000000;fill-opacity:1;fill-rule:nonzero;stroke:none;stroke-width:1.37845;stroke-linecap:butt;stroke-linejoin:miter;stroke-miterlimit:4;stroke-dasharray:none;stroke-dashoffset:0;stroke-opacity:1;color-rendering:auto;image-rendering:auto;shape-rendering:auto;text-rendering:auto;enable-background:accumulate;stop-color:#000000;stop-opacity:1"
             d="m 240.44336,99.388672 c -2.03875,0 -4.02739,0.858978 -5.4375,2.384768 -1.16892,1.24953 -1.92578,3.07338 -1.92578,4.69336 0,1.09962 0.38866,2.21605 1.09765,3.01367 v 0.002 h 0.002 c 0.33235,0.37146 0.69223,0.68417 1.20898,0.98438 0.51585,0.29968 1.18852,0.60579 2.25586,1.06836 8.4e-4,3.6e-4 0.001,-3.7e-4 0.002,0 0.001,4.8e-4 8.4e-4,10e-4 0.002,0.002 1.30995,0.57667 2.03513,0.98435 2.34765,1.29687 0.31303,0.31303 0.36133,0.51906 0.36133,1.19336 0,1.73155 -1.5487,3.28711 -3.32226,3.28711 -0.94921,0 -1.60693,-0.35606 -1.9668,-0.94726 -0.12771,-0.2133 -0.17678,-0.32977 -0.22266,-0.61914 -0.0462,-0.29129 -0.0684,-0.75338 -0.0684,-1.50586 v -0.68946 h -3.91796 l -0.0488,0.63477 c -0.0711,0.92425 -0.10938,1.3584 -0.10938,1.61523 0,1.19082 0.47619,2.43622 1.25977,3.38477 l 0.002,0.002 v 0.002 c 1.06034,1.26424 2.65688,1.91601 4.61133,1.91601 4.3489,0 7.89453,-3.54261 7.89453,-7.85937 0,-1.63306 -0.59627,-2.93809 -1.82031,-3.79493 -0.24589,-0.17555 -0.43914,-0.30745 -0.82422,-0.5 -0.38579,-0.19289 -0.98977,-0.46747 -2.1836,-1.01171 l -0.0117,-0.006 c -0.87418,-0.41961 -1.32388,-0.63645 -1.5586,-0.75586 -0.21412,-0.10894 -0.22375,-0.12272 -0.3164,-0.18946 -0.18795,-0.16655 -0.5625,-0.92961 -0.5625,-1.23242 0,-1.2539 1.38345,-2.57617 2.7539,-2.57617 0.67103,0 0.98856,0.1497 1.2168,0.43164 0.22824,0.28194 0.40234,0.82615 0.40234,1.71875 v 0.68945 h 3.98047 l 0.0566,-0.62695 c 0.0392,-0.43172 0.0391,-0.84298 0.0391,-1.12695 0,-2.77187 -2.26009,-4.878908 -5.19726,-4.878908 z m 0,1.378908 c 2.31625,0 3.81836,1.44438 3.81836,3.5 0,0.10627 -0.01,0.25035 -0.0117,0.375 h -1.38281 c -0.0731,-0.73882 -0.23206,-1.40143 -0.63281,-1.89649 -0.52606,-0.64983 -1.36277,-0.94336 -2.28907,-0.94336 -2.17914,0 -4.13086,1.80136 -4.13086,3.95508 0,0.90075 0.39641,1.74961 1.0625,2.30469 l 0.0215,0.0156 0.0195,0.0156 c 0.12423,0.0887 0.25801,0.17743 0.52734,0.31445 0.26933,0.13703 0.71221,0.34944 1.59961,0.77539 l 0.006,0.002 0.006,0.004 c 1.20687,0.55019 1.81257,0.82621 2.15234,0.9961 0.33978,0.16989 0.39411,0.2151 0.64258,0.39257 l 0.004,0.002 0.002,0.002 c 0.90572,0.63401 1.23242,1.3174 1.23242,2.66602 0,3.56337 -2.91338,6.48047 -6.51562,6.48047 -1.66362,0 -2.76556,-0.48427 -3.55078,-1.41797 v -0.002 c -0.56462,-0.68426 -0.94336,-1.70943 -0.94336,-2.50586 0,-0.0157 0.0373,-0.53324 0.0605,-0.87304 h 1.29297 c 0.0109,0.35747 0.009,0.77292 0.0508,1.03515 0.0692,0.43639 0.21443,0.7988 0.40429,1.11524 v 0.002 l 0.002,0.002 c 0.63404,1.04162 1.822,1.60938 3.14454,1.60938 2.55695,0 4.70117,-2.13803 4.70117,-4.66602 0,-0.81652 -0.18238,-1.58472 -0.76563,-2.16796 -0.58324,-0.58325 -1.42328,-0.99273 -2.77148,-1.58594 l -0.002,-0.002 c -1.05917,-0.45897 -1.70022,-0.75498 -2.11524,-0.99609 -0.41502,-0.24111 -0.60392,-0.40797 -0.875,-0.71094 -0.42688,-0.48024 -0.74805,-1.35148 -0.74805,-2.09765 0,-1.14871 0.66288,-2.80073 1.55274,-3.75196 l 0.002,-0.002 0.002,-0.002 c 1.14543,-1.24089 2.77633,-1.94336 4.42774,-1.94336 z"
             id="path1167" />
        </g>
        <g
           id="g1169"
           style="opacity:1">
          <path
             style="color:#000000;font-style:italic;font-variant:normal;font-weight:normal;font-stretch:normal;font-size:35.4961px;line-height:1.25;font-family:'URW Gothic';-inkscape-font-specification:'URW Gothic Italic';font-variant-ligatures:normal;font-variant-position:normal;font-variant-caps:normal;font-variant-numeric:normal;font-variant-alternates:normal;font-variant-east-asian:normal;font-feature-settings:normal;font-variation-settings:normal;text-indent:0;text-align:start;text-decoration:none;text-decoration-line:none;text-decoration-style:solid;text-decoration-color:#000000;letter-spacing:normal;word-spacing:normal;text-transform:none;writing-mode:lr-tb;direction:ltr;text-orientation:mixed;dominant-baseline:auto;baseline-shift:baseline;text-anchor:start;white-space:normal;shape-padding:0;shape-margin:0;inline-size:0;clip-rule:nonzero;display:inline;overflow:visible;visibility:visible;isolation:auto;mix-blend-mode:normal;color-interpolation:sRGB;color-interpolation-filters:linearRGB;solid-color:#000000;solid-opacity:1;vector-effect:none;fill:#000000;fill-opacity:1;fill-rule:nonzero;stroke:none;stroke-width:1.37845;stroke-linecap:butt;stroke-linejoin:miter;stroke-miterlimit:4;stroke-dasharray:none;stroke-dashoffset:0;stroke-opacity:1;color-rendering:auto;image-rendering:auto;shape-rendering:auto;text-rendering:auto;enable-background:accumulate;stop-color:#000000;stop-opacity:1"
             d="m 245.87359,114.24123 c -0.071,0.9229 -0.10649,1.41984 -0.10649,1.56183 0,0.99389 0.42595,2.12977 1.10038,2.94618 0.9229,1.10037 2.27175,1.66831 4.08205,1.66831 3.97556,0 7.20571,-3.23014 7.20571,-7.17021 0,-1.49084 -0.46145,-2.48473 -1.52633,-3.23015 -0.49695,-0.35496 -0.49695,-0.35496 -2.91068,-1.45534 -1.77481,-0.8519 -1.77481,-0.8519 -2.02328,-1.02938 -0.42595,-0.35496 -0.81641,-1.17137 -0.81641,-1.77481 0,-1.70381 1.66832,-3.26564 3.44312,-3.26564 1.59733,0 2.30725,0.8874 2.30725,2.83969 h 2.66221 c 0.0355,-0.39046 0.0355,-0.78091 0.0355,-1.06488 0,-2.41374 -1.88129,-4.18854 -4.508,-4.18854 -1.8458,0 -3.6561,0.78091 -4.93396,2.16526 -1.02939,1.10038 -1.73931,2.83969 -1.73931,4.22403 0,0.9229 0.35496,1.91679 0.9229,2.55572 0.60343,0.67443 1.10038,0.9584 3.23014,1.8813 2.66221,1.17137 3.12366,1.63282 3.12366,3.12365 0,2.12977 -1.8458,3.97557 -4.01106,3.97557 -1.13587,0 -2.05877,-0.46145 -2.55572,-1.27786 -0.31946,-0.53244 -0.39046,-0.9584 -0.39046,-2.48473 z"
             id="path1171" />
          <path
             style="color:#000000;font-style:italic;font-variant:normal;font-weight:normal;font-stretch:normal;font-size:35.4961px;line-height:1.25;font-family:'URW Gothic';-inkscape-font-specification:'URW Gothic Italic';font-variant-ligatures:normal;font-variant-position:normal;font-variant-caps:normal;font-variant-numeric:normal;font-variant-alternates:normal;font-variant-east-asian:normal;font-feature-settings:normal;font-variation-settings:normal;text-indent:0;text-align:start;text-decoration:none;text-decoration-line:none;text-decoration-style:solid;text-decoration-color:#000000;letter-spacing:normal;word-spacing:normal;text-transform:none;writing-mode:lr-tb;direction:ltr;text-orientation:mixed;dominant-baseline:auto;baseline-shift:baseline;text-anchor:start;white-space:normal;shape-padding:0;shape-margin:0;inline-size:0;clip-rule:nonzero;display:inline;overflow:visible;visibility:visible;isolation:auto;mix-blend-mode:normal;color-interpolation:sRGB;color-interpolation-filters:linearRGB;solid-color:#000000;solid-opacity:1;vector-effect:none;fill:#000000;fill-opacity:1;fill-rule:nonzero;stroke:none;stroke-width:1.37845;stroke-linecap:butt;stroke-linejoin:miter;stroke-miterlimit:4;stroke-dasharray:none;stroke-dashoffset:0;stroke-opacity:1;color-rendering:auto;image-rendering:auto;shape-rendering:auto;text-rendering:auto;enable-background:accumulate;stop-color:#000000;stop-opacity:1"
             d="m 254.81836,99.388672 c -2.03928,0 -4.02732,0.858228 -5.4375,2.384768 -1.16892,1.24953 -1.92383,3.07338 -1.92383,4.69336 0,1.09962 0.38671,2.21605 1.0957,3.01367 l 0.002,0.002 c 0.33235,0.37146 0.69418,0.68417 1.21093,0.98438 0.51676,0.30021 1.18722,0.60638 2.25782,1.07031 1.31154,0.57725 2.03493,0.98415 2.34765,1.29687 0.31303,0.31303 0.36133,0.51906 0.36133,1.19336 0,1.73155 -1.5487,3.28711 -3.32226,3.28711 -0.94921,0 -1.60693,-0.35606 -1.9668,-0.94726 -0.12771,-0.2133 -0.17678,-0.32977 -0.22266,-0.61914 -0.0462,-0.29129 -0.0664,-0.75338 -0.0664,-1.50586 v -0.68946 h -3.91992 l -0.0488,0.63477 c -0.0711,0.92425 -0.10742,1.3584 -0.10743,1.61523 0,1.19081 0.47422,2.43621 1.25782,3.38477 l 0.002,0.002 0.002,0.002 c 1.06035,1.26424 2.65493,1.91601 4.60938,1.91601 4.34889,0 7.89453,-3.54261 7.89453,-7.85937 0,-1.63306 -0.59627,-2.93809 -1.82031,-3.79493 -0.24588,-0.17554 -0.43719,-0.30746 -0.82227,-0.5 -0.38579,-0.19289 -0.99171,-0.46747 -2.18555,-1.01171 l -0.0117,-0.006 c -0.87417,-0.4196 -1.32193,-0.63645 -1.55664,-0.75586 -0.21267,-0.1082 -0.22546,-0.12199 -0.31641,-0.1875 -0.18771,-0.16518 -0.5625,-0.93118 -0.5625,-1.23438 0,-1.2539 1.38345,-2.57617 2.75391,-2.57617 0.67103,0 0.98856,0.1497 1.21679,0.43164 0.22824,0.28194 0.40039,0.82615 0.40039,1.71875 v 0.68945 h 3.98047 l 0.0566,-0.62695 c 0.0392,-0.43172 0.0391,-0.84298 0.0391,-1.12695 0,-2.77187 -2.26009,-4.878908 -5.19726,-4.878908 z m 0,1.378908 c 2.31625,0 3.81836,1.44438 3.81836,3.5 0,0.10628 -0.01,0.25034 -0.0117,0.375 h -1.38086 c -0.0731,-0.73882 -0.23401,-1.40143 -0.63476,-1.89649 -0.52606,-0.64983 -1.36082,-0.94336 -2.28711,-0.94336 -2.17915,0 -4.13282,1.80136 -4.13282,3.95508 0,0.90075 0.39836,1.74961 1.06446,2.30469 l 0.0195,0.0156 0.0215,0.0156 c 0.12424,0.0887 0.25801,0.17743 0.52735,0.31445 0.26933,0.13703 0.71025,0.34944 1.59765,0.77539 l 0.006,0.002 0.006,0.004 c 1.20687,0.55019 1.81257,0.82621 2.15234,0.9961 0.33978,0.16989 0.39606,0.21509 0.64454,0.39257 l 0.002,0.002 0.004,0.002 c 0.90572,0.63401 1.23242,1.3174 1.23242,2.66602 0,3.56337 -2.91535,6.48047 -6.51758,6.48047 -1.66615,0 -2.76728,-0.48538 -3.55274,-1.42188 -0.56373,-0.68426 -0.93945,-1.70823 -0.93945,-2.50391 0,-0.0157 0.0373,-0.53318 0.0606,-0.87304 h 1.29101 c 0.0109,0.35747 0.009,0.77292 0.0508,1.03515 0.0692,0.43639 0.21443,0.7988 0.40429,1.11524 l 0.002,0.002 v 0.002 c 0.63404,1.04162 1.822,1.60938 3.14454,1.60938 2.55695,0 4.70117,-2.13803 4.70117,-4.66602 0,-0.81652 -0.18238,-1.58472 -0.76563,-2.16796 -0.58324,-0.58325 -1.42132,-0.99273 -2.76953,-1.58594 h -0.002 l -0.002,-0.002 c -1.05917,-0.45897 -1.70022,-0.75498 -2.11524,-0.99609 -0.41446,-0.24078 -0.60255,-0.40874 -0.87305,-0.71094 -0.42688,-0.48024 -0.75,-1.35148 -0.75,-2.09765 0,-1.14871 0.66483,-2.80073 1.55469,-3.75196 v -0.002 l 0.002,-0.002 c 1.14543,-1.24089 2.77633,-1.94336 4.42774,-1.94336 z"
             id="path1173" />
        </g>
        <g
           id="g1175"
           style="opacity:1">
          <path
             style="color:#000000;font-style:italic;font-variant:normal;font-weight:normal;font-stretch:normal;font-size:35.4961px;line-height:1.25;font-family:'URW Gothic';-inkscape-font-specification:'URW Gothic Italic';font-variant-ligatures:normal;font-variant-position:normal;font-variant-caps:normal;font-variant-numeric:normal;font-variant-alternates:normal;font-variant-east-asian:normal;font-feature-settings:normal;font-variation-settings:normal;text-indent:0;text-align:start;text-decoration:none;text-decoration-line:none;text-decoration-style:solid;text-decoration-color:#000000;letter-spacing:normal;word-spacing:normal;text-transform:none;writing-mode:lr-tb;direction:ltr;text-orientation:mixed;dominant-baseline:auto;baseline-shift:baseline;text-anchor:start;white-space:normal;shape-padding:0;shape-margin:0;inline-size:0;clip-rule:nonzero;display:inline;overflow:visible;visibility:visible;isolation:auto;mix-blend-mode:normal;color-interpolation:sRGB;color-interpolation-filters:linearRGB;solid-color:#000000;solid-opacity:1;vector-effect:none;fill:#000000;fill-opacity:1;fill-rule:nonzero;stroke:none;stroke-width:1.37845;stroke-linecap:butt;stroke-linejoin:miter;stroke-miterlimit:4;stroke-dasharray:none;stroke-dashoffset:0;stroke-opacity:1;color-rendering:auto;image-rendering:auto;shape-rendering:auto;text-rendering:auto;enable-background:accumulate;stop-color:#000000;stop-opacity:1"
             d="m 281.29864,111.11757 c 0.24847,-1.41984 0.31947,-2.09427 0.31947,-2.94617 0,-4.75648 -3.44313,-8.09311 -8.41258,-8.09311 -6.3893,0 -12.06867,5.67937 -12.06867,12.06867 0,4.79197 3.54961,8.27059 8.41257,8.27059 2.59122,0 5.14694,-0.9229 7.17021,-2.59121 1.59733,-1.31336 2.7687,-2.66221 3.62061,-4.25954 h -2.7332 c -1.52634,2.59122 -4.68549,4.43702 -7.59617,4.43702 -3.54961,0 -6.3538,-2.59122 -6.3538,-5.89236 0,-0.21297 0.0355,-0.56793 0.071,-0.99389 z m -17.03813,-2.37823 c 1.27786,-3.6561 4.79198,-6.24732 8.48357,-6.24732 3.76259,0 6.21182,2.41374 6.3893,6.24732 z"
             id="path1177" />
          <path
             style="color:#000000;font-style:italic;font-variant:normal;font-weight:normal;font-stretch:normal;font-size:35.4961px;line-height:1.25;font-family:'URW Gothic';-inkscape-font-specification:'URW Gothic Italic';font-variant-ligatures:normal;font-variant-position:normal;font-variant-caps:normal;font-variant-numeric:normal;font-variant-alternates:normal;font-variant-east-asian:normal;font-feature-settings:normal;font-variation-settings:normal;text-indent:0;text-align:start;text-decoration:none;text-decoration-line:none;text-decoration-style:solid;text-decoration-color:#000000;letter-spacing:normal;word-spacing:normal;text-transform:none;writing-mode:lr-tb;direction:ltr;text-orientation:mixed;dominant-baseline:auto;baseline-shift:baseline;text-anchor:start;white-space:normal;shape-padding:0;shape-margin:0;inline-size:0;clip-rule:nonzero;display:inline;overflow:visible;visibility:visible;isolation:auto;mix-blend-mode:normal;color-interpolation:sRGB;color-interpolation-filters:linearRGB;solid-color:#000000;solid-opacity:1;vector-effect:none;fill:#000000;fill-opacity:1;fill-rule:nonzero;stroke:none;stroke-width:1.37845;stroke-linecap:butt;stroke-linejoin:miter;stroke-miterlimit:4;stroke-dasharray:none;stroke-dashoffset:0;stroke-opacity:1;color-rendering:auto;image-rendering:auto;shape-rendering:auto;text-rendering:auto;enable-background:accumulate;stop-color:#000000;stop-opacity:1"
             d="m 273.20508,99.388672 c -6.79773,0 -12.75781,5.960088 -12.75781,12.757808 0,5.13233 3.90992,8.96094 9.10156,8.96094 2.75487,0 5.46256,-0.97982 7.60937,-2.75 v 0.002 c 1.64847,-1.35541 2.89147,-2.78211 3.79102,-4.46876 l 0.53906,-1.01367 h -4.27539 l -0.19922,0.33985 c -1.3879,2.3562 -4.38265,4.09765 -7.00195,4.09765 -3.21419,0 -5.66602,-2.2923 -5.66602,-5.20312 0,-0.0444 0.0156,-0.21694 0.0215,-0.30469 h 17.50976 l 0.10157,-0.57031 c 0.25101,-1.43439 0.32812,-2.17426 0.32812,-3.06445 0,-5.0891 -3.8236,-8.783208 -9.10156,-8.783208 z m 0,1.378908 c 4.66094,0 7.72461,2.98043 7.72461,7.4043 0,0.64942 -0.10672,1.35826 -0.24805,2.25585 h -17.58789 l -0.0527,0.63282 c -0.035,0.41964 -0.0723,0.76122 -0.0723,1.05078 0,3.69145 3.15794,6.58203 7.04297,6.58203 3.06194,0 6.19442,-1.81023 7.92187,-4.4375 h 1.10547 c -0.72582,1.07103 -1.58207,2.07234 -2.75781,3.03906 -1.89973,1.56645 -4.30485,2.4336 -6.73242,2.4336 -4.53428,0 -7.72266,-3.13042 -7.72266,-7.58204 0,-5.98087 5.39804,-11.3789 11.37891,-11.3789 z m -0.46094,1.03515 c -4.01411,0 -7.76052,2.77712 -9.13476,6.70899 l -0.32032,0.91601 h 0.97071 15.5957 l -0.0332,-0.7207 c -0.0952,-2.05642 -0.81267,-3.80248 -2.05665,-5.02148 -1.24397,-1.219 -2.9928,-1.88282 -5.02148,-1.88282 z m 0,1.37891 c 1.73391,0 3.09099,0.54202 4.05664,1.48828 0.81829,0.80186 1.29435,1.97893 1.49414,3.38086 h -12.89258 c 1.42016,-2.8629 4.30379,-4.86914 7.3418,-4.86914 z"
             id="path1179" />
        </g>
        <g
           id="g1181"
           style="opacity:1">
          <path
             style="color:#000000;font-style:italic;font-variant:normal;font-weight:normal;font-stretch:normal;font-size:35.4961px;line-height:1.25;font-family:'URW Gothic';-inkscape-font-specification:'URW Gothic Italic';font-variant-ligatures:normal;font-variant-position:normal;font-variant-caps:normal;font-variant-numeric:normal;font-variant-alternates:normal;font-variant-east-asian:normal;font-feature-settings:normal;font-variation-settings:normal;text-indent:0;text-align:start;text-decoration:none;text-decoration-line:none;text-decoration-style:solid;text-decoration-color:#000000;letter-spacing:normal;word-spacing:normal;text-transform:none;writing-mode:lr-tb;direction:ltr;text-orientation:mixed;dominant-baseline:auto;baseline-shift:baseline;text-anchor:start;white-space:normal;shape-padding:0;shape-margin:0;inline-size:0;clip-rule:nonzero;display:inline;overflow:visible;visibility:visible;isolation:auto;mix-blend-mode:normal;color-interpolation:sRGB;color-interpolation-filters:linearRGB;solid-color:#000000;solid-opacity:1;vector-effect:none;fill:#000000;fill-opacity:1;fill-rule:nonzero;stroke:none;stroke-width:1.37845;stroke-linecap:butt;stroke-linejoin:miter;stroke-miterlimit:4;stroke-dasharray:none;stroke-dashoffset:0;stroke-opacity:1;color-rendering:auto;image-rendering:auto;shape-rendering:auto;text-rendering:auto;enable-background:accumulate;stop-color:#000000;stop-opacity:1"
             d="m 282.9314,114.24123 c -0.071,0.9229 -0.10648,1.41984 -0.10648,1.56183 0,0.99389 0.42595,2.12977 1.10038,2.94618 0.92289,1.10037 2.27175,1.66831 4.08205,1.66831 3.97556,0 7.20571,-3.23014 7.20571,-7.17021 0,-1.49084 -0.46145,-2.48473 -1.52634,-3.23015 -0.49694,-0.35496 -0.49694,-0.35496 -2.91068,-1.45534 -1.7748,-0.8519 -1.7748,-0.8519 -2.02327,-1.02938 -0.42596,-0.35496 -0.81642,-1.17137 -0.81642,-1.77481 0,-1.70381 1.66832,-3.26564 3.44313,-3.26564 1.59732,0 2.30724,0.8874 2.30724,2.83969 h 2.66221 c 0.0355,-0.39046 0.0355,-0.78091 0.0355,-1.06488 0,-2.41374 -1.8813,-4.18854 -4.50801,-4.18854 -1.8458,0 -3.6561,0.78091 -4.93396,2.16526 -1.02938,1.10038 -1.7393,2.83969 -1.7393,4.22403 0,0.9229 0.35496,1.91679 0.92289,2.55572 0.60344,0.67443 1.10038,0.9584 3.23015,1.8813 2.66221,1.17137 3.12366,1.63282 3.12366,3.12365 0,2.12977 -1.8458,3.97557 -4.01106,3.97557 -1.13588,0 -2.05878,-0.46145 -2.55572,-1.27786 -0.31947,-0.53244 -0.39046,-0.9584 -0.39046,-2.48473 z"
             id="path1183" />
          <path
             style="color:#000000;font-style:italic;font-variant:normal;font-weight:normal;font-stretch:normal;font-size:35.4961px;line-height:1.25;font-family:'URW Gothic';-inkscape-font-specification:'URW Gothic Italic';font-variant-ligatures:normal;font-variant-position:normal;font-variant-caps:normal;font-variant-numeric:normal;font-variant-alternates:normal;font-variant-east-asian:normal;font-feature-settings:normal;font-variation-settings:normal;text-indent:0;text-align:start;text-decoration:none;text-decoration-line:none;text-decoration-style:solid;text-decoration-color:#000000;letter-spacing:normal;word-spacing:normal;text-transform:none;writing-mode:lr-tb;direction:ltr;text-orientation:mixed;dominant-baseline:auto;baseline-shift:baseline;text-anchor:start;white-space:normal;shape-padding:0;shape-margin:0;inline-size:0;clip-rule:nonzero;display:inline;overflow:visible;visibility:visible;isolation:auto;mix-blend-mode:normal;color-interpolation:sRGB;color-interpolation-filters:linearRGB;solid-color:#000000;solid-opacity:1;vector-effect:none;fill:#000000;fill-opacity:1;fill-rule:nonzero;stroke:none;stroke-width:1.37845;stroke-linecap:butt;stroke-linejoin:miter;stroke-miterlimit:4;stroke-dasharray:none;stroke-dashoffset:0;stroke-opacity:1;color-rendering:auto;image-rendering:auto;shape-rendering:auto;text-rendering:auto;enable-background:accumulate;stop-color:#000000;stop-opacity:1"
             d="m 291.87695,99.388672 c -2.03875,0 -4.02739,0.858978 -5.4375,2.384768 -1.16891,1.24953 -1.92578,3.07338 -1.92578,4.69336 0,1.09962 0.38868,2.21605 1.09766,3.01367 v 0.002 h 0.002 c 0.33236,0.37146 0.69223,0.68417 1.20899,0.98438 0.51585,0.29968 1.18851,0.60579 2.25585,1.06836 8.4e-4,3.6e-4 10e-4,-3.7e-4 0.002,0 10e-4,4.8e-4 8.4e-4,10e-4 0.002,0.002 1.30996,0.57667 2.03514,0.98435 2.34766,1.29687 0.31303,0.31303 0.36133,0.51906 0.36133,1.19336 0,1.73155 -1.5487,3.28711 -3.32227,3.28711 -0.94922,0 -1.60694,-0.35606 -1.9668,-0.94726 -0.12771,-0.2133 -0.17678,-0.32977 -0.22265,-0.61914 -0.0462,-0.29129 -0.0684,-0.75338 -0.0684,-1.50586 v -0.68946 h -3.91797 l -0.0488,0.63477 c -0.0711,0.92426 -0.10937,1.35843 -0.10937,1.61523 0,1.19081 0.47617,2.43621 1.25976,3.38477 l 0.002,0.002 v 0.002 c 1.06034,1.26424 2.65688,1.91601 4.61133,1.91601 4.34889,0 7.89453,-3.54261 7.89453,-7.85937 0,-1.63306 -0.59626,-2.93809 -1.82031,-3.79493 -0.24588,-0.17555 -0.43914,-0.30745 -0.82422,-0.5 -0.38579,-0.19289 -0.98976,-0.46747 -2.18359,-1.01171 l -0.0117,-0.006 c -0.87417,-0.41961 -1.32388,-0.63645 -1.55859,-0.75586 -0.21413,-0.10894 -0.22376,-0.12272 -0.31641,-0.18946 -0.18795,-0.16655 -0.5625,-0.92961 -0.5625,-1.23242 0,-1.2539 1.38344,-2.57617 2.75391,-2.57617 0.67102,0 0.98856,0.1497 1.21679,0.43164 0.22824,0.28194 0.40235,0.82615 0.40235,1.71875 v 0.68945 h 3.98047 l 0.0566,-0.62695 c 0.0392,-0.43172 0.0391,-0.84298 0.0391,-1.12695 0,-2.77187 -2.2601,-4.878908 -5.19727,-4.878908 z m 0,1.378908 c 2.31625,0 3.81836,1.44439 3.81836,3.5 0,0.10627 -0.01,0.25035 -0.0117,0.375 h -1.38281 c -0.0731,-0.73882 -0.23205,-1.40143 -0.63281,-1.89649 -0.52606,-0.64983 -1.36277,-0.94336 -2.28906,-0.94336 -2.17916,0 -4.13086,1.80136 -4.13086,3.95508 0,0.90075 0.39834,1.74961 1.06445,2.30469 l 0.0195,0.0156 0.0195,0.0156 c 0.12424,0.0887 0.25802,0.17743 0.52735,0.31445 0.26933,0.13703 0.71221,0.34944 1.59961,0.77539 l 0.006,0.002 0.006,0.004 c 1.20687,0.55019 1.81257,0.82621 2.15235,0.9961 0.33978,0.16989 0.39411,0.2151 0.64258,0.39257 l 0.004,0.002 0.002,0.002 c 0.90573,0.63401 1.23242,1.3174 1.23242,2.66602 0,3.56337 -2.9134,6.48047 -6.51563,6.48047 -1.66361,0 -2.76557,-0.48427 -3.55078,-1.41797 v -0.002 c -0.56462,-0.68426 -0.94336,-1.70943 -0.94336,-2.50586 0,-0.0157 0.0373,-0.53325 0.0606,-0.87304 h 1.29297 c 0.0109,0.35747 0.009,0.77292 0.0508,1.03515 0.0692,0.43639 0.21443,0.7988 0.4043,1.11524 v 0.002 l 0.002,0.002 c 0.63402,1.04163 1.82199,1.60938 3.14453,1.60938 2.55695,0 4.70117,-2.13803 4.70117,-4.66602 0,-0.81652 -0.18238,-1.58472 -0.76562,-2.16796 -0.58325,-0.58325 -1.42328,-0.99273 -2.77149,-1.58594 l -0.002,-0.002 c -1.05917,-0.45897 -1.70022,-0.75498 -2.11524,-0.99609 -0.41501,-0.24111 -0.60391,-0.40796 -0.875,-0.71094 -0.42687,-0.48024 -0.74804,-1.35148 -0.74804,-2.09765 0,-1.14871 0.66288,-2.80073 1.55273,-3.75196 l 0.002,-0.002 0.002,-0.002 c 1.14543,-1.24089 2.77633,-1.94336 4.42773,-1.94336 z"
             id="path1185" />
        </g>
      </g>
    </g>
  </g>
</svg>
