<?xml version="1.0" standalone="no"?>
<!DOCTYPE svg PUBLIC "-//W3C//DTD SVG 20010904//EN"
 "http://www.w3.org/TR/2001/REC-SVG-20010904/DTD/svg10.dtd">
<svg version="1.0" xmlns="http://www.w3.org/2000/svg"
 width="700.000000pt" height="700.000000pt" viewBox="0 0 700.000000 700.000000"
 preserveAspectRatio="xMidYMid meet">
<metadata>
Created by potrace 1.11, written by Peter Selinger 2001-2013
</metadata>
<g transform="translate(0.000000,700.000000) scale(0.100000,-0.100000)"
fill="#000000" stroke="none">
<path d="M2410 6338 c0 -399 -3 -508 -12 -509 -7 -1 -357 -2 -778 -3 l-765 -1
-3 -297 -2 -297 -168 1 c-92 0 -211 -1 -264 -1 l-97 -1 0 -1195 c0 -657 -3
-1200 -6 -1206 -4 -6 -19 -10 -33 -9 -77 5 -70 27 -76 -232 -2 -128 -6 -552
-7 -943 l-3 -710 62 -3 62 -3 0 -77 c1 -42 1 -186 1 -319 l0 -243 1106 0
c1087 0 1106 0 1133 -20 16 -11 32 -20 38 -20 5 0 15 -7 22 -15 7 -8 16 -13
20 -10 5 3 10 2 12 -2 4 -10 75 -46 96 -49 9 -2 18 -8 20 -13 2 -6 12 -11 22
-11 10 0 22 -5 25 -11 4 -5 12 -8 18 -6 7 2 17 -3 24 -12 8 -11 12 -12 13 -3
0 9 7 8 26 -4 14 -10 39 -19 55 -21 16 -1 45 -9 63 -17 45 -19 576 -24 576 -5
0 8 4 8 15 -1 11 -9 15 -9 15 -1 0 7 5 9 10 6 6 -3 10 -2 10 2 0 5 10 10 23
11 12 1 31 3 42 5 11 1 27 10 37 20 11 12 18 14 23 7 5 -8 11 -8 19 -1 7 6 16
8 19 4 4 -3 7 -1 7 5 0 10 26 22 58 28 8 1 23 11 35 21 14 12 18 13 12 3 -6
-11 -3 -10 12 2 11 10 25 18 31 18 7 0 12 5 12 11 0 5 4 8 9 4 6 -3 14 3 20
12 6 10 11 15 11 10 0 -4 10 -1 23 8 13 8 27 12 32 8 4 -5 5 -3 2 3 -19 33 37
34 1269 34 l1224 0 0 128 c-1 70 -1 213 -1 319 l1 192 93 3 92 3 0 718 c0 394
-2 718 -5 718 -3 1 -21 2 -40 3 -19 1 -40 5 -45 8 -7 4 -11 83 -10 222 l1 216
-31 1 c-16 1 -36 1 -42 0 -9 -1 -13 13 -13 41 0 24 0 566 0 1206 l0 1162 -85
0 c-47 0 -85 4 -85 9 0 5 16 71 36 147 50 193 72 290 80 352 5 44 3 52 -10 52
-9 0 -16 -6 -16 -12 -1 -27 -127 -400 -131 -387 -3 8 -4 109 -4 225 l2 211
-1004 -3 -1003 -4 -2 512 -3 513 -962 1 -963 0 0 -508z m3085 -607 c19 -1 20
-8 20 -243 0 -141 -4 -246 -9 -250 -5 -3 -206 -6 -447 -6 -435 0 -437 0 -456
22 -10 11 -42 51 -71 89 -30 37 -57 67 -60 67 -4 0 -16 14 -27 30 -11 16 -26
30 -34 30 -8 0 -12 3 -8 6 6 7 -17 34 -29 34 -22 0 -33 41 -34 127 l0 92 53 3
c40 2 1002 1 1102 -1z m-4938 -2028 c-3 -10 -5 -4 -5 12 0 17 2 24 5 18 2 -7
2 -21 0 -30z m8 -120 c2 -48 6 -180 10 -293 3 -113 8 -264 11 -336 l5 -131
-23 1 c-22 1 -23 2 -21 131 1 72 3 264 3 429 1 287 8 383 15 199z m91 -2718
c1 -33 0 -53 -3 -45 -3 8 -15 28 -26 43 -26 38 -57 33 -79 -13 l-17 -35 -1 58
0 58 62 -3 61 -3 3 -60z m805 28 c1 -21 3 -47 4 -58 9 -75 17 -119 30 -161 16
-54 13 -73 -4 -22 -6 18 -11 35 -10 38 0 3 -4 17 -10 32 -6 15 -13 51 -16 80
-3 29 -8 70 -11 91 -4 23 -2 37 5 37 6 0 12 -17 12 -37z m76 4 c9 -63 37 -132
67 -164 28 -31 40 -37 74 -37 28 0 52 8 72 23 l31 22 -23 -35 c-56 -86 -140
-80 -188 14 -16 32 -50 168 -50 201 0 20 14 1 17 -24z m219 21 c-25 -14 -97
-14 -122 0 -15 9 -3 11 61 11 64 0 76 -2 61 -11z m188 -63 c-19 -101 -75 -229
-126 -285 -30 -34 -83 -70 -100 -69 -9 0 -9 2 2 6 47 18 156 203 191 325 14
49 26 73 31 65 4 -6 5 -25 2 -42z"/>
</g>
</svg>
